<?xml version="1.0" encoding="utf-8"?>
<!-- Generator: Adobe Illustrator 27.0.0, SVG Export Plug-In . SVG Version: 6.00 Build 0)  -->
<svg version="1.1" xmlns="http://www.w3.org/2000/svg" xmlns:xlink="http://www.w3.org/1999/xlink" x="0px" y="0px"
	 viewBox="0 0 675.94 135" style="enable-background:new 0 0 675.94 135;" xml:space="preserve">
<style type="text/css">
	.st0{fill:#23350F;}
	.st1{fill:#EEC986;}
</style>
<g id="BACKGROUND">
</g>
<g id="OBJECTS">
	<g>
		<g>
			<path class="st0" d="M34.78,102.8l-3.13-8.33h0.5l2.96,7.95l2.97-7.95h0.49l-3.16,8.33H34.78z"/>
			<path class="st0" d="M46.12,102.8h-5.27v-8.33H46v0.39h-4.7v3.58h4.42v0.39H41.3v3.57h4.82V102.8z"/>
			<path class="st0" d="M55.38,99.01v3.79h-0.42v-2.02l-0.28,0.77c-0.64,1-1.67,1.41-2.7,1.41c-2.18,0-3.68-1.67-3.68-4.31
				c0-2.58,1.65-4.36,3.91-4.36c1.9,0,2.93,1.17,3.2,2.69l0.02,0.12h-0.46l-0.02-0.12c-0.27-1.32-1.19-2.29-2.79-2.29
				c-1.79,0-3.36,1.44-3.36,3.93c0,2.6,1.42,3.93,3.21,3.93c1.28,0,2.91-0.87,2.91-3.16h-2.6v-0.4H55.38z"/>
			<path class="st0" d="M59.4,99.63l-1.17,3.17h-0.5l3.17-8.33h0.6l3.14,8.33h-0.49l-1.19-3.17H59.4z M62.81,99.23l-1.62-4.38
				l-1.64,4.38H62.81z"/>
			<path class="st0" d="M72.38,102.8l-4.74-7.89c0.02,1.09,0.02,2.37,0.02,3.45v4.44H67.2v-8.33h0.7l4.76,7.89
				c-0.02-1.09-0.02-2.38-0.02-3.46v-4.43h0.45l0.01,8.33H72.38z"/>
		</g>
		<path class="st1" d="M26.91,26.64c1.09,1.4,2.7,2.78,3.86,4.56c5.22,7.58,14.94,23.41,22.53,39.9c14.02-8.4,2.78-28.57,2.78-28.57
			l-0.81,2.68c-4.96-10.84-14.64-16.39-14.64-16.39l0.35,2.34c-4.42-5.56-15.73-7.79-15.73-7.79s-3.63,10.93-0.98,17.52l-1.87-1.46
			c0,0,0.06,11.16,7.04,20.82l-2.73-0.61c0,0,11.22,18.44,24.81,12.39c0,0-11.54-25.77-21.23-40.58
			C28.21,28.39,26.91,26.64,26.91,26.64z"/>
		<path class="st1" d="M46.23,19.31c0,0.67-0.54,1.21-1.21,1.21s-1.21-0.54-1.21-1.21c0-0.67,0.54-1.21,1.21-1.21
			S46.23,18.64,46.23,19.31z"/>
		<path class="st1" d="M65.45,19.31c0,0.67-0.54,1.21-1.21,1.21c-0.67,0-1.21-0.54-1.21-1.21c0-0.67,0.54-1.21,1.21-1.21
			C64.91,18.1,65.45,18.64,65.45,19.31z"/>
		<path class="st1" d="M55.97,11.98c0,0.67-0.54,1.21-1.21,1.21c-0.67,0-1.21-0.54-1.21-1.21c0-0.67,0.54-1.21,1.21-1.21
			C55.43,10.78,55.97,11.32,55.97,11.98z"/>
		<path class="st1" d="M77.84,31.09c2.1-3.05,3.29-5.1,3.29-5.1c-1.09,1.4-2.5,2.89-3.67,4.67c-3.56,5.18-9.21,14.21-14.97,24.61
			c0.16,0.97,0.28,1.94,0.35,2.91C67.05,49.73,72.72,38.92,77.84,31.09z"/>
		<path class="st1" d="M84.99,38.79l-1.87,1.46c2.65-6.59-0.98-17.52-0.98-17.52s-11.3,2.23-15.73,7.79l0.35-2.34
			c0,0-6.1,3.5-11.1,10.38c1.69,3.09,5.03,9.82,6.19,16.73c5.75-10.4,11.4-19.43,14.97-24.61c1.17-1.78,2.58-3.27,3.67-4.67
			c0,0-1.2,2.05-3.29,5.1c-5.12,7.83-10.79,18.64-15,27.09c0.36,5.22-0.84,10.26-5.25,13.62c13.1,4.65,23.73-12.81,23.73-12.81
			l-2.73,0.61C84.94,49.94,84.99,38.79,84.99,38.79z"/>
	</g>
	<g>
		<g>
			<path class="st1" d="M480.89,63.63c0.03-0.15,0.06-0.32,0.02-0.46c-0.49-1.73-0.81-3.53-1.87-5.02
				c-0.63-0.89-0.65-1.67-0.06-2.57c0.34-0.52,0.56-1.13,0.88-1.81c-1.33,0-2.02-0.9-2.81-1.67c-0.2-0.19-0.48-0.35-0.75-0.42
				c-0.93-0.24-1.87-0.44-2.82-0.64c-0.28-0.06-0.43-0.19-0.55-0.45c-0.3-0.67-0.63-1.32-0.94-1.98c-0.03,0-0.06,0.01-0.09,0.01
				c0,0.43,0,0.85,0,1.25c-0.37,0.13-0.57,0-0.77-0.26c-0.88-1.22-1.79-2.42-2.66-3.64c-0.13-0.18-0.21-0.43-0.21-0.65
				c-0.02-0.92,0-1.84-0.02-2.77c0-0.21-0.07-0.45-0.18-0.63c-0.59-0.99-1.21-1.95-1.79-2.94c-0.23-0.39-0.45-0.49-0.9-0.4
				c-1.51,0.28-3.02,0.6-4.58,0.6c-0.87,0-1.47-0.37-2.12-0.86c0.49-0.39,0.95-0.77,1.42-1.14c-0.43,0.04-0.83,0.12-1.23,0.23
				c-0.12,0.03-0.25,0.13-0.31,0.24c-1.19,2.07-2.03,4.27-2.47,6.61c-0.19,1.01-0.29,2.04-0.43,3.06c0,0.77,0,1.53,0,2.3
				c0.11,0.85,0.18,1.71,0.34,2.56c1.32,6.95,5.11,12.13,11.3,15.52c2.65,1.46,5.52,2.25,8.55,2.45c0.11,0.01,0.22,0.05,0.33,0.07
				c0.79,0,1.59,0,2.38,0c0.53-0.07,1.06-0.14,1.62-0.21c-0.02-0.23-0.04-0.44-0.05-0.65c-0.05-0.98-0.26-1.96,0.06-2.95
				C480.48,65.51,480.67,64.56,480.89,63.63z"/>
			<path class="st1" d="M487.38,36.04c-0.29-0.25-0.48-0.54-0.57-0.91c-0.33-1.26-0.86-2.36-1.93-3.24
				c-0.81-0.66-1.72-0.57-2.58-0.86c-0.15,0.6-0.08,1.04,0.39,1.42c0.49,0.4,0.93,0.87,1.37,1.33c0.39,0.41,0.74,0.84,1.1,1.25
				c-0.68,0.62-1.37,0.69-2.13,0.29c-0.17-0.09-0.36-0.18-0.55-0.23c-0.52-0.12-0.72-0.41-0.61-0.94c0.03-0.14-0.01-0.4-0.1-0.44
				c-0.53-0.25-1.08-0.46-1.64-0.69c-0.16,0.68-0.34,1.29-0.43,1.92c-0.07,0.5-0.3,0.73-0.79,0.79c-0.35,0.04-0.87,0.05-0.99,0.26
				c-0.17,0.28-0.04,0.75-0.01,1.13c0.01,0.11,0.12,0.29,0.21,0.31c0.7,0.15,1.41,0.28,2.14,0.42c0.14-0.77,0.28-1.51,0.42-2.29
				c0.7,0.13,1.42,0.13,2.01,0.41c0.6,0.28,1.16,0.48,1.82,0.41c0.3-0.03,0.47,0.07,0.58,0.36c0.44,1.15,1.16,2.1,2.08,2.91
				c0.31,0.27,0.58,0.58,0.87,0.88c0.51,0.52,0.54,0.76,0.15,1.52c-1.33-0.52-2.51-0.09-3.75,0.54c-1.28,0.65-2.37,1.44-3.22,2.6
				c-0.61,0.84-1.44,1.54-1.53,2.67c-0.01,0.07-0.15,0.2-0.22,0.19c-0.36-0.03-0.73-0.04-1.08-0.15c-0.41-0.13-0.8-0.36-1.2-0.54
				c-0.11-0.04-0.26-0.07-0.35-0.03c-0.52,0.23-1.02,0.48-1.55,0.73c0.14,0.59,0.27,1.15,0.4,1.7c0.03,0.04,0.05,0.07,0.08,0.11
				c0.39-0.95,1.12-0.99,1.96-0.88c-0.03,0.52-0.05,1.03-0.08,1.58c0.72,0.09,1.31,0.38,1.68,0.98c0.29,0.48,0.65,0.51,1.14,0.33
				c0.4-0.15,0.86-0.31,1.27-0.26c1.04,0.14,2.05,0.4,3.08,0.62c0.6,0.12,1.2,0.22,1.79,0.37c0.23,0.06,0.5,0.16,0.64,0.33
				c1.06,1.38,2.36,2.47,3.93,3.24c0.43,0.21,0.83,0.48,1.25,0.73c0.11,0.06,0.2,0.14,0.32,0.22c-0.79,1.52-1.57,3.01-2.36,4.5
				c-0.06,0.12-0.22,0.22-0.35,0.28c-0.66,0.32-1.34,0.61-2,0.95c-0.18,0.09-0.35,0.28-0.42,0.47c-0.27,0.64-0.47,1.31-0.74,1.94
				c-0.1,0.23-0.27,0.47-0.47,0.61c-0.92,0.64-1.82,1.31-2.8,1.86c-0.76,0.43-0.76,1.13-0.97,1.8c0.08,0.01,0.11,0.02,0.14,0.01
				c0.06-0.01,0.11-0.03,0.16-0.04c3.87-1.01,7.23-2.94,10.04-5.79c3.19-3.23,5.18-7.1,5.97-11.57c0.16-0.92,0.22-1.85,0.33-2.78
				c0-0.65,0-1.31,0-1.96c-0.02-0.14-0.05-0.28-0.06-0.41c-0.24-3.62-1.31-6.97-3.23-10.05c-0.36-0.58-0.36-0.58-1.02-0.45
				c-0.07,0.01-0.14,0.02-0.21,0.02c-0.96,0.09-1.92,0.18-2.88,0.25c-0.3,0.02-0.49,0.14-0.64,0.4c-0.24,0.42-0.51,0.81-0.82,1.3
				c-0.39-0.26-0.78-0.46-1.1-0.73C488.64,37.2,488.03,36.6,487.38,36.04z"/>
			<path class="st1" d="M477.53,24.64c3.86-9.07,9.88-9.01,9.88-9.01c-6.68,1.91-9.04,10.07-9.04,10.07
				c8.93,1.46,11.6-11.19,11.6-11.19s-6.63-1.05-10.39,1.39C475.82,18.36,477.53,24.64,477.53,24.64z"/>
			<path class="st1" d="M467.15,23.59c3.22,2.92,9.07,1.57,9.07,1.57c0.26,0.21,0.59,0.83,0.89,1.48c-0.34,0-0.68,0-1.01,0
				c-0.73,0.1-1.46,0.17-2.18,0.29c-4.07,0.68-7.67,2.37-10.77,5.09c-0.85,0.75-1.62,1.59-2.43,2.4c0.03,0.03,0.06,0.07,0.08,0.1
				c0.13-0.04,0.27-0.07,0.4-0.11c1.52-0.47,3.04-0.9,4.64-1.03c1.16-0.09,2.27-0.34,3.23-1.03c0.26-0.19,0.51-0.17,0.8-0.08
				c0.57,0.17,1.14,0.4,1.72,0.43c0.92,0.04,1.84-0.06,2.76-0.13c0.16-0.01,0.36-0.14,0.46-0.28c0.28-0.39,0.51-0.82,0.79-1.21
				c0.08-0.11,0.29-0.2,0.43-0.19c0.56,0.03,1.13,0.18,1.68,0.16c1.09-0.05,2.17-0.19,3.26-0.31c0.16-0.02,0.34-0.12,0.46-0.24
				c0.42-0.38,0.81-0.79,1.21-1.18c0.75-0.72,1.61-0.87,2.61-0.58c0.41,0.12,0.87,0.06,1.31,0.08c0-0.05,0.01-0.09,0.01-0.14
				c-1.71-0.8-3.5-1.37-5.37-1.69c-0.79-0.14-1.59-0.23-2.39-0.34c-0.33,0-0.66,0-0.99,0c-5.38-12.24-17.67-13.84-17.67-13.84
				c8.43-0.91,16.19,8.49,16.19,8.49c-0.37-1.74,0.85-4.22,0.85-4.22c-8.25-11.13-19.88-4.11-19.88-4.11
				C461.16,14.64,463.93,20.66,467.15,23.59z M471.87,30.95c-0.08,0.02-0.19-0.04-0.27-0.08c-0.39-0.22-0.78-0.46-1.21-0.71
				c0.51-0.4,0.98-0.76,1.46-1.13c0,0,0.03,0,0.06,0.01c0.59,0.39,1.2,0.34,1.8,0.06c0.26-0.12,0.41-0.05,0.53,0.2
				c0.14,0.29,0.32,0.56,0.51,0.9C473.77,30.46,472.82,30.71,471.87,30.95z M480.45,27.67c0.08-0.04,0.22-0.03,0.31,0.01
				c0.41,0.22,0.81,0.46,1.27,0.73c-0.7,0.53-1.3,1.15-2.04,1.49c-0.57,0.27-1.3,0.25-1.96,0.24c-0.3-0.01-0.6-0.32-0.99-0.55
				c0.4-0.23,0.79-0.45,1.18-0.66c0.07-0.01,0.14-0.06,0.21-0.12C479.12,28.42,479.79,28.04,480.45,27.67z"/>
			<path class="st1" d="M497.52,35.11c-0.31-0.46-1.03-0.25-1.03,0.3h0c2.85,4.15,4.38,9.26,3.98,14.74
				c-0.85,11.62-10.45,20.88-22.09,21.33c-13.14,0.51-23.99-10.03-23.99-23.05c0-4.83,1.21-8.89,3.76-12.6
				c0-0.56-0.73-0.77-1.04-0.29c-2.59,4.08-4,8.99-3.71,14.23c0.65,11.99,10.24,21.8,22.21,22.7c14.12,1.06,25.95-10.13,25.95-24.03
				C501.55,43.51,500.06,38.93,497.52,35.11z"/>
		</g>
		<g>
			<path class="st0" d="M470.23,98.08h-5.27v-8.33h5.15v0.39h-4.69v3.58h4.42v0.39h-4.42v3.57h4.82V98.08z"/>
			<path class="st0" d="M479.43,92.28l0.01,0.12h-0.46l-0.02-0.12c-0.27-1.32-1.19-2.29-2.78-2.29c-1.73,0-3.27,1.44-3.27,3.93
				c0,2.6,1.42,3.93,3.17,3.93c1.69,0,2.59-1.04,2.87-2.4l0.02-0.12h0.46l-0.01,0.12c-0.28,1.54-1.33,2.8-3.37,2.8
				c-2.16,0-3.66-1.67-3.66-4.31c0-2.58,1.63-4.36,3.81-4.36C478.12,89.59,479.15,90.76,479.43,92.28z"/>
			<path class="st0" d="M489.47,93.92c0,2.5-1.47,4.33-3.8,4.33c-2.34,0-3.81-1.83-3.81-4.33c0-2.51,1.47-4.33,3.81-4.33
				C488,89.59,489.47,91.41,489.47,93.92z M488.96,93.92c0-2.51-1.47-3.93-3.29-3.93c-1.83,0-3.31,1.42-3.31,3.93
				c0,2.5,1.47,3.93,3.31,3.93C487.49,97.86,488.96,96.42,488.96,93.92z"/>
			<path class="st0" d="M448.91,108.21h4.3v0.39h-4.3v3.97h-0.46v-8.33h5.15v0.39h-4.69V108.21z"/>
			<path class="st0" d="M461.69,112.56h-0.52c-0.19-0.53-0.36-1.03-0.5-2.18c-0.11-0.92-0.51-1.71-1.47-1.76
				c-0.25-0.01-0.53-0.01-0.72-0.01h-1.85v3.96h-0.46v-8.33h2.2c0.42,0,0.79,0.01,1.17,0.06c1.27,0.16,2.03,0.83,2.03,2.08
				c0,1.07-0.68,1.81-1.65,2.02c0.74,0.25,1.12,1,1.22,1.92C461.27,111.51,461.44,112.06,461.69,112.56z M458.49,108.21
				c0.33,0,0.53,0,0.88-0.02c1.04-0.08,1.7-0.76,1.7-1.77c0-1.04-0.59-1.58-1.64-1.71c-0.34-0.05-0.64-0.06-1.06-0.06h-1.74v3.57
				H458.49z"/>
			<path class="st0" d="M464.41,112.56v-8.33h0.46v8.33H464.41z"/>
			<path class="st0" d="M473.4,112.56h-5.27v-8.33h5.15v0.39h-4.69v3.58h4.42v0.39h-4.42v3.57h4.82V112.56z"/>
			<path class="st0" d="M481.33,112.56l-4.74-7.89c0.02,1.09,0.02,2.37,0.02,3.45v4.44h-0.46v-8.33h0.7l4.75,7.89
				c-0.02-1.09-0.02-2.38-0.02-3.46v-4.43h0.45l0.01,8.33H481.33z"/>
			<path class="st0" d="M491.95,108.35c0,2.81-1.86,4.01-3.17,4.16c-0.42,0.05-0.66,0.05-1.06,0.05h-2.43v-8.33h2.44
				c0.4,0,0.59,0,0.93,0.02C490.09,104.39,491.95,105.51,491.95,108.35z M491.44,108.35c0-2.43-1.48-3.54-2.82-3.68
				c-0.27-0.04-0.47-0.04-0.91-0.04h-1.97v7.53h1.94c0.4,0,0.66-0.01,1.03-0.06C490.05,111.93,491.44,110.72,491.44,108.35z"/>
			<path class="st0" d="M500.05,112.56h-5.27v-8.33h0.46v7.93h4.82V112.56z"/>
			<path class="st0" d="M503.42,112.56h-0.46v-3.38l-2.96-4.95h0.53l2.68,4.49l2.63-4.49h0.53l-2.96,4.95V112.56z"/>
		</g>
		<g>
			<path class="st1" d="M449,65.26c-0.15,0-0.28-0.12-0.28-0.28v-4.66c0-0.15,0.12-0.28,0.28-0.28s0.28,0.12,0.28,0.28v4.66
				C449.28,65.14,449.15,65.26,449,65.26z"/>
			<path class="st1" d="M449,72.16c-0.15,0-0.28-0.12-0.28-0.28v-4.65c0-0.15,0.12-0.28,0.28-0.28s0.28,0.12,0.28,0.28v4.65
				C449.28,72.04,449.15,72.16,449,72.16z"/>
			<path class="st1" d="M444.3,66.16c0-0.15,0.09-0.28,0.19-0.28h3.24c0.11,0,0.19,0.12,0.19,0.28s-0.09,0.28-0.19,0.28h-3.24
				C444.39,66.44,444.3,66.31,444.3,66.16z"/>
			<path class="st1" d="M450.14,66.16c0-0.15,0.09-0.28,0.19-0.28h3.24c0.11,0,0.19,0.12,0.19,0.28s-0.09,0.28-0.19,0.28h-3.24
				C450.23,66.44,450.14,66.31,450.14,66.16z"/>
		</g>
		<g>
			<path class="st1" d="M493.01,23.86c-0.15,0-0.28-0.12-0.28-0.28v-4.65c0-0.15,0.12-0.28,0.28-0.28s0.28,0.12,0.28,0.28v4.65
				C493.29,23.74,493.16,23.86,493.01,23.86z"/>
			<path class="st1" d="M493.01,30.76c-0.15,0-0.28-0.12-0.28-0.28v-4.65c0-0.15,0.12-0.28,0.28-0.28s0.28,0.12,0.28,0.28v4.65
				C493.29,30.64,493.16,30.76,493.01,30.76z"/>
			<path class="st1" d="M488.31,24.76c0-0.15,0.09-0.28,0.19-0.28h3.24c0.11,0,0.19,0.12,0.19,0.28c0,0.15-0.09,0.28-0.19,0.28
				h-3.24C488.39,25.03,488.31,24.91,488.31,24.76z"/>
			<path class="st1" d="M494.15,24.76c0-0.15,0.09-0.28,0.19-0.28h3.24c0.11,0,0.19,0.12,0.19,0.28c0,0.15-0.09,0.28-0.19,0.28
				h-3.24C494.24,25.03,494.15,24.91,494.15,24.76z"/>
		</g>
		<g>
			<path class="st1" d="M458.49,24.56c-0.09,0-0.16-0.07-0.16-0.16v-2.65c0-0.09,0.07-0.16,0.16-0.16c0.09,0,0.16,0.07,0.16,0.16
				v2.65C458.65,24.48,458.58,24.56,458.49,24.56z"/>
			<path class="st1" d="M458.49,28.48c-0.09,0-0.16-0.07-0.16-0.16v-2.65c0-0.09,0.07-0.16,0.16-0.16c0.09,0,0.16,0.07,0.16,0.16
				v2.65C458.65,28.41,458.58,28.48,458.49,28.48z"/>
			<path class="st1" d="M455.81,25.06c0-0.09,0.05-0.16,0.11-0.16h1.85c0.06,0,0.11,0.07,0.11,0.16s-0.05,0.16-0.11,0.16h-1.85
				C455.86,25.22,455.81,25.15,455.81,25.06z"/>
			<path class="st1" d="M459.14,25.06c0-0.09,0.05-0.16,0.11-0.16h1.85c0.06,0,0.11,0.07,0.11,0.16s-0.05,0.16-0.11,0.16h-1.85
				C459.19,25.22,459.14,25.15,459.14,25.06z"/>
		</g>
		<g>
			<path class="st1" d="M497.76,78.65c-0.09,0-0.16-0.07-0.16-0.16v-2.65c0-0.09,0.07-0.16,0.16-0.16c0.09,0,0.16,0.07,0.16,0.16
				v2.65C497.92,78.58,497.85,78.65,497.76,78.65z"/>
			<path class="st1" d="M497.76,82.58c-0.09,0-0.16-0.07-0.16-0.16v-2.65c0-0.09,0.07-0.16,0.16-0.16c0.09,0,0.16,0.07,0.16,0.16
				v2.65C497.92,82.51,497.85,82.58,497.76,82.58z"/>
			<path class="st1" d="M495.08,79.16c0-0.09,0.05-0.16,0.11-0.16h1.85c0.06,0,0.11,0.07,0.11,0.16s-0.05,0.16-0.11,0.16h-1.85
				C495.13,79.32,495.08,79.25,495.08,79.16z"/>
			<path class="st1" d="M498.41,79.16c0-0.09,0.05-0.16,0.11-0.16h1.85c0.06,0,0.11,0.07,0.11,0.16s-0.05,0.16-0.11,0.16h-1.85
				C498.46,79.32,498.41,79.25,498.41,79.16z"/>
		</g>
	</g>
	<g>
		<g>
			<path class="st0" d="M335.92,97.12l-4.74-7.89c0.02,1.09,0.02,2.37,0.02,3.45v4.44h-0.46v-8.33h0.7l4.76,7.89
				c-0.02-1.09-0.02-2.38-0.02-3.46v-4.43h0.45l0.01,8.33H335.92z"/>
			<path class="st0" d="M346.92,92.95c0,2.5-1.47,4.33-3.8,4.33c-2.34,0-3.81-1.83-3.81-4.33c0-2.51,1.47-4.33,3.81-4.33
				C345.45,88.62,346.92,90.44,346.92,92.95z M346.41,92.95c0-2.51-1.47-3.93-3.29-3.93c-1.83,0-3.31,1.42-3.31,3.93
				c0,2.5,1.47,3.93,3.31,3.93C344.94,96.89,346.41,95.45,346.41,92.95z"/>
			<path class="st0" d="M354.18,93.94l-1.17,3.17h-0.5l3.17-8.33h0.6l3.14,8.33h-0.5l-1.19-3.17H354.18z M357.6,93.54l-1.62-4.38
				l-1.64,4.38H357.6z"/>
			<path class="st0" d="M367.16,97.12l-4.74-7.89c0.02,1.09,0.02,2.37,0.02,3.45v4.44h-0.46v-8.33h0.7l4.75,7.89
				c-0.02-1.09-0.02-2.38-0.02-3.46v-4.43h0.45l0.01,8.33H367.16z"/>
			<path class="st0" d="M371.12,97.12v-8.33h0.46v8.33H371.12z"/>
			<path class="st0" d="M382.58,97.12h-0.45v-4.7c0-1.05-0.01-2.23,0.01-3.25c-0.38,1.01-0.83,2.21-1.26,3.25l-1.89,4.7h-0.58
				l-1.9-4.71c-0.41-1.03-0.88-2.22-1.25-3.22c0.02,1.01,0.02,2.18,0.02,3.23v4.7h-0.46v-8.33h0.75l3.14,7.93l3.16-7.93h0.7V97.12z"
				/>
			<path class="st0" d="M386.74,93.94l-1.17,3.17h-0.5l3.17-8.33h0.6l3.14,8.33h-0.5l-1.19-3.17H386.74z M390.16,93.54l-1.62-4.38
				l-1.64,4.38H390.16z"/>
			<path class="st0" d="M399.82,97.12h-5.27v-8.33H395v7.93h4.82V97.12z"/>
			<path class="st0" d="M341.8,103.65v7.94h-0.46v-7.94h-3.13v-0.39h6.72v0.39H341.8z"/>
			<path class="st0" d="M352.56,111.59h-5.27v-8.33h5.15v0.39h-4.69v3.58h4.42v0.39h-4.42v3.57h4.82V111.59z"/>
			<path class="st0" d="M360.27,105.44h-0.48c-0.18-1.23-1.01-1.94-2.16-1.94c-1.01,0-2.1,0.56-2.1,1.68c0,1.12,0.69,1.5,2.26,1.93
				c1.75,0.47,2.61,1.09,2.61,2.41c0,1.29-1.17,2.25-2.74,2.25c-1.56,0-2.83-0.78-3.01-2.39h0.48c0.18,1.29,1.26,1.99,2.54,1.99
				c1.27,0,2.23-0.71,2.23-1.77c0-1.15-0.68-1.61-2.3-2.05c-1.71-0.46-2.56-0.99-2.56-2.29c0-1.27,1.21-2.15,2.63-2.15
				C359.25,103.1,360.11,104.15,360.27,105.44z"/>
			<path class="st0" d="M366.16,103.65v7.94h-0.46v-7.94h-3.13v-0.39h6.72v0.39H366.16z"/>
			<path class="st0" d="M371.64,111.59v-8.33h0.46v8.33H371.64z"/>
			<path class="st0" d="M380.54,111.59l-4.74-7.89c0.02,1.09,0.02,2.37,0.02,3.45v4.44h-0.46v-8.33h0.7l4.75,7.89
				c-0.02-1.09-0.02-2.38-0.02-3.46v-4.43h0.45l0.01,8.33H380.54z"/>
			<path class="st0" d="M391.01,107.8v3.79h-0.42v-2.02l-0.28,0.77c-0.64,1-1.67,1.41-2.7,1.41c-2.18,0-3.68-1.67-3.68-4.31
				c0-2.58,1.65-4.36,3.91-4.36c1.9,0,2.93,1.17,3.2,2.69l0.02,0.12h-0.46l-0.02-0.12c-0.27-1.32-1.2-2.29-2.79-2.29
				c-1.79,0-3.36,1.44-3.36,3.93c0,2.6,1.42,3.93,3.21,3.93c1.28,0,2.91-0.87,2.91-3.16h-2.59v-0.4H391.01z"/>
		</g>
		<g>
			<path class="st1" d="M373.46,25.32c0,0,4.16,0.47,6.69,3.19c2.53,2.72,3.57,4.03,2.6,4.85c0,0-0.19,3.47-4.97,4.16
				c0,0,1.88,4.72,1.88,6.97c0,2.25-0.78,1.66-0.78,1.66s0.75,2.94,0.22,4.22c-0.53,1.28-1.03,0.47-1.03,0.47s-1.44,4.85-2.03,8.41
				c-0.59,3.57-0.84,5.66,0.03,6.04c0.88,0.38,3.44,0.34,3.25,3.03c0,0-0.66,1.03-3.94,0.69c-3.28-0.34-4.44-4.28-4.75-6.91
				c0,0-2.13,3.06-3.57,3.44c0,0,3.97-0.19,5.07,2.91c0,0,0.88,0.98-7.04,0.63c-7.91-0.35-10.7,0.49-11.88-2.6
				c0,0-3.97,0.69-5.91-1.59c-1.94-2.28-2.03-7.97-0.69-6.88c1.34,1.09,2.25,2.44,2.25,2.44s-2.1-4.6,0.53-9.32
				c2.63-4.72,7.07-10.63,13.45-12.92c6.38-2.28,6.69-8.41,4.16-10.48c-2.53-2.06-7.26-5.22-7.79-8.44c-0.53-3.22,0.34-5,0.34-5
				s1.25,3.41,4.47,4.6c3.22,1.19,5.66,4.32,5.63,6.07c0,0-0.06-3.85-1.41-6.1c-1.34-2.25-0.81-6.79-0.09-8.07
				C368.14,10.78,376.37,14.47,373.46,25.32z"/>
			<path class="st1" d="M358,30.2c0.45-1.18-0.14-2.49-1.32-2.94c-0.76-0.29-1.59-0.14-2.19,0.32c-0.15-0.75-0.66-1.41-1.43-1.7
				c-1.18-0.45-2.5,0.14-2.94,1.32c-0.12,0.31-0.16,0.63-0.15,0.93l0,0c0,0,0.04,2.25,2.44,4.86l0,0.01c0,0,0.01,0,0.01,0
				c0,0,0.01,0.01,0.01,0.01l0-0.01c3.53-0.36,5.06-2.01,5.06-2.01l0,0C357.7,30.78,357.88,30.51,358,30.2z"/>
			<path class="st1" d="M344.08,36.16c-0.33-0.86,0.1-1.83,0.97-2.16c0.56-0.21,1.16-0.11,1.61,0.23c0.11-0.55,0.49-1.03,1.05-1.24
				c0.86-0.33,1.83,0.1,2.16,0.97c0.09,0.23,0.12,0.46,0.11,0.68h0c0,0-0.03,1.65-1.79,3.57l0,0.01c0,0-0.01,0-0.01,0
				c0,0,0,0.01-0.01,0.01l0-0.01c-2.59-0.26-3.71-1.47-3.71-1.47l0,0C344.29,36.58,344.16,36.38,344.08,36.16z"/>
			<path class="st1" d="M379.47,62.98c0,0-1.02-6.25,4.89-8.52C384.36,54.46,386.75,59.03,379.47,62.98z"/>
			<path class="st1" d="M380.87,63.58c0,0,3.63-2.93,7.24,0.02C388.11,63.6,386.06,66.8,380.87,63.58z"/>
			<path class="st1" d="M342.65,44.69c0,0.5-0.41,0.91-0.91,0.91c-0.5,0-0.91-0.41-0.91-0.91c0-0.5,0.41-0.91,0.91-0.91
				C342.24,43.78,342.65,44.19,342.65,44.69z"/>
			<path class="st1" d="M379.4,13.89c0,0.5-0.41,0.91-0.91,0.91c-0.5,0-0.91-0.41-0.91-0.91c0-0.5,0.41-0.91,0.91-0.91
				C379,12.98,379.4,13.39,379.4,13.89z"/>
			<path class="st1" d="M389.93,46.51c0,0.5-0.41,0.91-0.91,0.91c-0.5,0-0.91-0.41-0.91-0.91c0-0.5,0.41-0.91,0.91-0.91
				C389.52,45.6,389.93,46,389.93,46.51z"/>
		</g>
	</g>
	<g>
		<g>
			<path class="st0" d="M135.73,87.75l0.01,0.12h-0.46l-0.02-0.12c-0.27-1.32-1.19-2.29-2.78-2.29c-1.73,0-3.27,1.44-3.27,3.93
				c0,2.6,1.42,3.93,3.17,3.93c1.69,0,2.6-1.04,2.87-2.4l0.02-0.12h0.46l-0.01,0.12c-0.28,1.54-1.33,2.8-3.37,2.8
				c-2.16,0-3.66-1.67-3.66-4.31c0-2.58,1.63-4.36,3.81-4.36C134.41,85.06,135.45,86.23,135.73,87.75z"/>
			<path class="st0" d="M144.23,93.56h-0.52c-0.19-0.53-0.36-1.03-0.49-2.18c-0.11-0.92-0.51-1.71-1.47-1.76
				c-0.25-0.01-0.53-0.01-0.72-0.01h-1.85v3.96h-0.46v-8.33h2.2c0.42,0,0.78,0.01,1.17,0.06c1.27,0.16,2.03,0.83,2.03,2.08
				c0,1.07-0.68,1.81-1.65,2.02c0.74,0.25,1.12,1,1.22,1.92C143.81,92.51,143.98,93.05,144.23,93.56z M141.03,89.2
				c0.33,0,0.53,0,0.88-0.02c1.04-0.08,1.7-0.76,1.7-1.77c0-1.04-0.59-1.58-1.64-1.71c-0.34-0.05-0.64-0.06-1.06-0.06h-1.74v3.57
				H141.03z"/>
			<path class="st0" d="M152.47,90.67c0,0.21-0.01,0.46-0.04,0.8c-0.1,1.3-1,2.26-2.76,2.26c-1.75,0-2.66-0.95-2.75-2.26
				c-0.02-0.34-0.04-0.59-0.04-0.8v-5.44h0.46v5.46c0,0.28,0.01,0.51,0.04,0.75c0.1,1.05,0.8,1.89,2.29,1.89
				c1.51,0,2.21-0.84,2.31-1.89c0.02-0.24,0.04-0.47,0.04-0.75v-5.46h0.46V90.67z"/>
			<path class="st0" d="M160.93,93.56h-5.27v-8.33h5.15v0.39h-4.7v3.58h4.42v0.39h-4.42v3.57h4.82V93.56z"/>
			<path class="st0" d="M168.95,93.56h-5.27v-8.33h0.46v7.93h4.82V93.56z"/>
			<path class="st0" d="M172.53,85.61v7.94h-0.46v-7.94h-3.13v-0.39h6.72v0.39H172.53z"/>
			<path class="st0" d="M180.53,93.56h-0.46v-3.38l-2.96-4.95h0.53l2.68,4.49l2.63-4.49h0.53l-2.96,4.95V93.56z"/>
			<path class="st0" d="M142.04,103.68h4.3v0.39h-4.3v3.97h-0.46V99.7h5.15v0.39h-4.7V103.68z"/>
			<path class="st0" d="M154.82,108.03h-0.52c-0.19-0.53-0.36-1.03-0.49-2.18c-0.11-0.92-0.51-1.71-1.47-1.76
				c-0.25-0.01-0.53-0.01-0.72-0.01h-1.85v3.96h-0.46V99.7h2.2c0.42,0,0.78,0.01,1.17,0.06c1.27,0.16,2.03,0.83,2.03,2.08
				c0,1.07-0.68,1.81-1.65,2.02c0.74,0.25,1.12,1,1.22,1.92C154.4,106.98,154.57,107.53,154.82,108.03z M151.62,103.68
				c0.33,0,0.53,0,0.88-0.02c1.04-0.08,1.7-0.76,1.7-1.77c0-1.04-0.59-1.58-1.64-1.71c-0.34-0.05-0.64-0.06-1.06-0.06h-1.74v3.57
				H151.62z"/>
			<path class="st0" d="M162.82,108.03h-5.27V99.7h5.15v0.39H158v3.58h4.42v0.39H158v3.57h4.82V108.03z"/>
			<path class="st0" d="M170.84,108.03h-5.27V99.7h5.15v0.39h-4.7v3.58h4.42v0.39h-4.42v3.57h4.82V108.03z"/>
		</g>
		<g>
			<path class="st1" d="M138.65,45.3c0,0-4.73-3.45-5.22-3.99c-0.49-0.54-2.12-1.33-2.22,0.25c-0.1,1.58,2.86,3.25,3.72,4.73
				c0.86,1.48,2.68,4.92,5.79,5.86c0,0-3.46-1.07-5.3-3.73c-1.84-2.66-1.97-2.91-3.46-4.32c-1.49-1.41-1.81-2.48-1.41-3.27
				c0.39-0.79,1.29-0.77,1.29-0.77s-0.18-5.77-0.54-7.14c-0.36-1.38-1.84-2.36-2.1-0.89c-0.26,1.48-0.82,9.95-0.62,10.74
				c0.2,0.79,2.53,4.79,2.86,6.01c0.33,1.21,1.25,2.3,4.04,3.37c2.79,1.07,7.85,5.14,8.93,6.91c1.08,1.77,1.31,2.5,1.31,2.5h6.93
				c0,0-0.03-9.32-3.51-11.59C145.65,47.7,143.08,48.62,138.65,45.3z"/>
			<path class="st1" d="M132.05,35.23v4.83c0,0,0.97,0.16,1.43,0.73c0,0,0.41-4.81-1.13-5.73
				C132.22,34.98,132.05,35.08,132.05,35.23z"/>
			<path class="st1" d="M133.75,37.16v3.85c0,0,0.54,0.53,1.12,1.04c0,0,0.35-4.3-0.89-5.03C133.88,36.96,133.75,37.04,133.75,37.16
				z"/>
			<path class="st1" d="M135.14,39.29v2.93c0,0,0.31,0.33,0.94,0.89c0,0,0.3-3.31-0.74-3.94C135.26,39.12,135.14,39.19,135.14,39.29
				z"/>
		</g>
		<g>
			<path class="st1" d="M169.8,45.3c0,0,4.73-3.45,5.22-3.99c0.49-0.54,2.12-1.33,2.22,0.25c0.1,1.58-2.86,3.25-3.72,4.73
				s-2.68,4.92-5.79,5.86c0,0,3.46-1.07,5.3-3.73c1.84-2.66,1.97-2.91,3.46-4.32c1.49-1.41,1.81-2.48,1.41-3.27
				c-0.39-0.79-1.29-0.77-1.29-0.77s0.18-5.77,0.54-7.14c0.36-1.38,1.84-2.36,2.1-0.89c0.26,1.48,0.82,9.95,0.62,10.74
				c-0.2,0.79-2.53,4.79-2.86,6.01c-0.33,1.21-1.25,2.3-4.04,3.37c-2.79,1.07-7.85,5.14-8.93,6.91c-1.08,1.77-1.31,2.5-1.31,2.5
				h-6.93c0,0,0.03-9.32,3.51-11.59C162.81,47.7,165.38,48.62,169.8,45.3z"/>
			<path class="st1" d="M176.4,35.23v4.83c0,0-0.97,0.16-1.43,0.73c0,0-0.41-4.81,1.13-5.73C176.24,34.98,176.4,35.08,176.4,35.23z"
				/>
			<path class="st1" d="M174.7,37.16v3.85c0,0-0.54,0.53-1.12,1.04c0,0-0.35-4.3,0.89-5.03C174.57,36.96,174.7,37.04,174.7,37.16z"
				/>
			<path class="st1" d="M173.31,39.29v2.93c0,0-0.31,0.33-0.94,0.89c0,0-0.3-3.31,0.74-3.94C173.2,39.12,173.31,39.19,173.31,39.29z
				"/>
		</g>
		<path class="st1" d="M174.27,31.73c2.1-5.51-0.66-11.68-6.17-13.79c-3.58-1.36-7.44-0.68-10.28,1.48c-0.68-3.5-3.1-6.58-6.68-7.95
			c-5.51-2.1-11.68,0.66-13.79,6.17c-0.55,1.44-0.76,2.93-0.69,4.37l0,0c0,0,0.19,10.53,11.41,22.78l-0.02,0.06
			c0.02,0,0.04,0,0.07-0.01c0.02,0.02,0.03,0.03,0.05,0.05l0.02-0.06c16.53-1.67,23.68-9.4,23.68-9.4l0,0
			C172.89,34.42,173.72,33.17,174.27,31.73z"/>
	</g>
	<g>
		<g>
			<path class="st0" d="M243.26,97.71h-0.46v-7.83l-2.29,1.4v-0.5l1.88-1.18c0.3-0.18,0.43-0.22,0.6-0.22h0.27V97.71z"/>
			<path class="st0" d="M252.73,93.55c0,2.51-0.75,4.33-2.82,4.33c-2.06,0-2.82-1.83-2.82-4.33c0-2.52,0.76-4.33,2.82-4.33
				C251.98,89.22,252.73,91.04,252.73,93.55z M252.22,93.55c0-2.27-0.59-3.93-2.32-3.93c-1.71,0-2.32,1.65-2.32,3.93
				c0,2.26,0.6,3.93,2.32,3.93C251.63,97.49,252.22,95.82,252.22,93.55z"/>
			<path class="st0" d="M260.49,93.55c0,2.51-0.75,4.33-2.82,4.33c-2.06,0-2.82-1.83-2.82-4.33c0-2.52,0.76-4.33,2.82-4.33
				C259.74,89.22,260.49,91.04,260.49,93.55z M259.98,93.55c0-2.27-0.59-3.93-2.32-3.93c-1.71,0-2.32,1.65-2.32,3.93
				c0,2.26,0.6,3.93,2.32,3.93C259.39,97.49,259.98,95.82,259.98,93.55z"/>
			<path class="st0" d="M269.65,91.15c0,1.09-0.62,1.92-1.6,1.92c-1,0-1.61-0.83-1.61-1.92c0-1.11,0.6-1.92,1.61-1.92
				C269.04,89.23,269.65,90.04,269.65,91.15z M266.91,91.15c0,0.92,0.4,1.54,1.13,1.54c0.72,0,1.13-0.63,1.13-1.54
				c0-0.93-0.41-1.54-1.13-1.54C267.31,89.6,266.91,90.22,266.91,91.15z M267.01,97.71l5.4-8.33h0.5l-5.4,8.33H267.01z
				 M273.47,95.96c0,1.09-0.62,1.92-1.6,1.92c-1,0-1.61-0.83-1.61-1.92c0-1.11,0.6-1.92,1.61-1.92
				C272.85,94.05,273.47,94.85,273.47,95.96z M270.73,95.96c0,0.92,0.4,1.54,1.13,1.54c0.72,0,1.13-0.63,1.13-1.54
				c0-0.93-0.41-1.54-1.13-1.54C271.13,94.42,270.73,95.04,270.73,95.96z"/>
			<path class="st0" d="M234.19,112.19l-4.74-7.89c0.02,1.09,0.02,2.37,0.02,3.45v4.44h-0.46v-8.33h0.7l4.76,7.89
				c-0.02-1.09-0.02-2.38-0.02-3.46v-4.43h0.45l0.01,8.33H234.19z"/>
			<path class="st0" d="M239.05,109.02l-1.17,3.17h-0.5l3.17-8.33h0.6l3.14,8.33h-0.49l-1.19-3.17H239.05z M242.47,108.62
				l-1.62-4.38l-1.64,4.38H242.47z"/>
			<path class="st0" d="M248.68,104.25v7.94h-0.46v-7.94h-3.13v-0.39h6.72v0.39H248.68z"/>
			<path class="st0" d="M259.68,109.31c0,0.21-0.01,0.46-0.04,0.8c-0.1,1.3-1,2.26-2.76,2.26c-1.75,0-2.66-0.95-2.75-2.26
				c-0.02-0.34-0.04-0.59-0.04-0.8v-5.44h0.46v5.46c0,0.28,0.01,0.51,0.04,0.75c0.1,1.05,0.8,1.9,2.29,1.9
				c1.51,0,2.21-0.84,2.31-1.9c0.02-0.24,0.04-0.47,0.04-0.75v-5.46h0.46V109.31z"/>
			<path class="st0" d="M268.38,112.19h-0.52c-0.19-0.53-0.36-1.03-0.49-2.18c-0.11-0.92-0.51-1.71-1.47-1.76
				c-0.25-0.01-0.53-0.01-0.72-0.01h-1.85v3.96h-0.46v-8.33h2.2c0.42,0,0.78,0.01,1.17,0.06c1.27,0.16,2.03,0.83,2.03,2.08
				c0,1.07-0.68,1.81-1.65,2.02c0.74,0.25,1.12,1,1.22,1.92C267.96,111.14,268.13,111.69,268.38,112.19z M265.18,107.83
				c0.33,0,0.53,0,0.88-0.02c1.04-0.08,1.7-0.76,1.7-1.77c0-1.04-0.59-1.58-1.64-1.71c-0.34-0.05-0.64-0.06-1.06-0.06h-1.74v3.57
				H265.18z"/>
			<path class="st0" d="M272.01,109.02l-1.17,3.17h-0.5l3.17-8.33h0.6l3.14,8.33h-0.49l-1.19-3.17H272.01z M275.43,108.62
				l-1.62-4.38l-1.64,4.38H275.43z"/>
			<path class="st0" d="M285.09,112.19h-5.27v-8.33h0.46v7.93h4.82V112.19z"/>
		</g>
		<g>
			<path class="st1" d="M279.98,31.09c-9.49,1.72-16.96,6.87-20.5,15.35c-2.84,6.81,0.05,12.7,1.3,14.76
				c0.28-1.3,0.62-2.57,1.02-3.81l-0.07,0.19c0.17-0.34-0.64-8.12,0.48-11.05c0,0,0.19,5.79,0.3,8.8l-0.05,0.13
				c1.41-3.79,3.29-7.21,5.27-10.18c0,0-0.01,0-0.01,0s1-6.69,2.46-8.56c0,0-1.8,6.11-1.43,6.97c0.01,0.02,0.01,0.05,0.01,0.07
				c4.77-6.69,9.7-10.68,9.7-10.68c-2.91,3.13-5.36,6.38-7.4,9.52c4.26-1.64,8.66-4.47,8.66-4.47c-1.28,2.41-9.25,5.51-9.35,5.55
				c-2.05,3.28-3.65,6.41-4.88,9.12c2.26-0.69,9.63-4.27,9.63-4.27c-2.57,2.62-10.07,5.29-10.09,5.3c-1.78,4.09-2.65,7.07-2.88,7.89
				C288.37,54.41,279.98,31.09,279.98,31.09z"/>
			<path class="st1" d="M236.47,43.57c5.11,0.92,9.14,3.7,11.04,8.27c1.53,3.67-0.03,6.84-0.7,7.95c-0.15-0.7-0.34-1.39-0.55-2.05
				l0.04,0.1c-0.09-0.19,0.34-4.37-0.26-5.95c0,0-0.1,3.12-0.16,4.74l0.02,0.07c-0.76-2.04-1.77-3.88-2.84-5.48c0,0,0,0,0,0
				s-0.54-3.6-1.33-4.61c0,0,0.97,3.29,0.77,3.75c-0.01,0.01,0,0.03-0.01,0.04c-2.57-3.6-5.22-5.75-5.22-5.75
				c1.57,1.69,2.89,3.44,3.99,5.13c-2.29-0.88-4.67-2.41-4.67-2.41c0.69,1.3,4.98,2.97,5.04,2.99c1.1,1.77,1.97,3.45,2.63,4.91
				c-1.22-0.37-5.19-2.3-5.19-2.3c1.39,1.41,5.42,2.85,5.43,2.85c0.96,2.21,1.43,3.81,1.55,4.25
				C231.95,56.13,236.47,43.57,236.47,43.57z"/>
			<g>
				<path class="st1" d="M270.01,32.49c1.18-2.81,2.3-5.47,2.19-7.27c-0.03-0.53-0.22-0.84-0.55-0.91c-0.81-0.16-1.79,1.33-4.5,6.29
					c-0.63,1.15-1.24,2.26-1.7,3c0.12-1.14,0.46-3.12,0.77-4.93c1.14-6.66,1.94-11.86,1.04-13.21c-0.25-0.38-0.57-0.39-0.73-0.37
					c-1.11,0.19-2.17,3.61-4.27,11.71c-0.34,1.32-0.71,2.74-1.01,3.79c0.04-1.18,0.14-2.83,0.23-4.44
					c0.58-9.89,0.64-14.7-0.59-15.32c-0.21-0.1-0.44-0.1-0.65,0.02c-1.13,0.63-2.15,6.61-2.87,12.12c0-4.43-0.17-9-0.83-9.9
					c-0.29-0.4-0.62-0.39-0.78-0.34c-1.01,0.27-1.66,3.49-2.68,13.26c-0.08,0.79-0.16,1.49-0.22,2.01
					c-0.32,2.84-1.45,6.84-2.01,8.74c-1.21-2.82-2.91-5.31-3.75-6.27c-1.03-1.18-2.46-1.43-3.16-0.94
					c-0.34,0.25-0.57,0.74-0.19,1.41c1.58,2.73,2.67,6.9,3.15,12.08c0.56,6.03,1.41,7.49,2.39,9.18c0.26,0.44,0.52,0.9,0.79,1.47
					c1.2,2.52-1.15,9.69-1.17,9.76c-0.07,0.21,0.04,0.44,0.26,0.51c0.04,0.01,0.09,0.02,0.13,0.02c0.17,0,0.33-0.11,0.38-0.28
					c0.1-0.31,2.47-7.56,1.13-10.36c-0.28-0.59-0.56-1.07-0.82-1.52c-0.93-1.61-1.74-3-2.28-8.85c-0.49-5.29-1.62-9.58-3.26-12.41
					c-0.15-0.26-0.07-0.32-0.04-0.34c0.28-0.2,1.28-0.1,2.08,0.81c1.3,1.49,5.03,7.2,4.9,11.52c-0.01,0.22,0.17,0.41,0.39,0.42
					c0.21-0.01,0.41-0.17,0.42-0.39c0.04-1.46-0.32-3.05-0.87-4.59c0.28-0.9,1.92-6.22,2.34-9.86c0.06-0.53,0.13-1.22,0.22-2.02
					c0.33-3.16,1.19-11.37,2.03-12.49c0.8,1.31,0.72,11.88,0.47,18.3c-0.01,0.22,0.16,0.4,0.38,0.42c0.22,0.02,0.41-0.15,0.43-0.37
					c0.86-9.4,2.35-19.44,3.38-20.34c0.89,0.93,0.36,10.07,0.1,14.51c-0.33,5.63-0.33,6.38-0.01,6.66c0.09,0.08,0.25,0.13,0.37,0.1
					c0.44-0.08,0.6-0.45,2.01-5.87c0.94-3.64,2.67-10.32,3.57-11.07c0.76,1.27-0.41,8.08-1.18,12.6c-0.96,5.62-1.01,6.29-0.5,6.53
					c0.1,0.05,0.37,0.12,0.64-0.2c0.47-0.56,1.32-2.1,2.29-3.88c1.07-1.94,2.79-5.09,3.53-5.77c0,0.02,0,0.03,0,0.05
					c0.1,1.61-1.03,4.3-2.13,6.9c-0.26,0.63-0.53,1.26-0.78,1.89l1.2-0.8C269.79,33.01,269.9,32.75,270.01,32.49z"/>
				<path class="st1" d="M259.47,65.99c0.02,0.21,0.19,0.37,0.4,0.37c0.01,0,0.02,0,0.04,0c0.22-0.02,0.39-0.22,0.37-0.44
					c-0.08-0.88,0.01-1.97,0.2-3.16l-0.71-0.63C259.51,63.55,259.37,64.9,259.47,65.99z"/>
			</g>
			<path class="st1" d="M265.54,64.39c-0.2,0-0.37-0.15-0.4-0.35c-0.03-0.22,0.13-0.42,0.35-0.45c0.11-0.01,11.36-1.57,15.85-10.16
				c0.1-0.2,0.35-0.27,0.55-0.17c0.2,0.1,0.27,0.35,0.17,0.55c-4.69,8.97-16.35,10.57-16.46,10.59
				C265.57,64.39,265.55,64.39,265.54,64.39z"/>
			<path class="st1" d="M240.59,60.49c-0.05,0-0.1-0.01-0.15-0.03c-10.9-4.51-7.84-16.87-7.81-16.99c0.06-0.22,0.27-0.35,0.49-0.29
				c0.22,0.06,0.35,0.28,0.29,0.49c-0.12,0.48-2.91,11.81,7.34,16.04c0.21,0.09,0.3,0.32,0.22,0.53
				C240.9,60.4,240.75,60.49,240.59,60.49z"/>
		</g>
	</g>
	<g>
		<g>
			<path class="st1" d="M623.85,45.83c2.19-3.03,4.97-5.24,7.84-6.5c-2.31,1.39-4.44,3.38-6.22,5.87c-2.12,2.97-2.97,6.61-4.79,9.75
				c-5.28,9.3-16.44,14.72-27.03,13.09c7.29-0.37,14.66-3.23,20.02-8.27c7.05-6.37,12.62-20.31,1.8-26.09
				c0.16-1.93,0.5-3.91-0.56-6.22C621.37,31,624.45,38.39,623.85,45.83z"/>
			<path class="st1" d="M604.94,31.81c-13.81,0-31.25,9.34-31.25,20.55c0,3.82,2.56,5.05,5.31,5.05c1.3,0,2.61-0.26,3.83-0.71
				c0.64-0.24,1.33-0.49,1.88-0.92c0.27-0.21,0.54-0.44,0.69-0.75c0.21-0.44-0.09-0.64-0.52-0.35c-1.49,1.04-3.17,1.87-5.04,1.28
				c-1.45-0.46-2.13-1.79-2.06-3.25c-0.15-3.17,1.93-6.34,3.78-8.73c2.46-3.17,5.59-5.95,9.14-7.84c2.27-1.21,5.67-2.87,8.27-1.93
				c0.84,0.38,1.47,0.88,2,1.45c2.65,2.99,1.85,8.55,5.75,10.92c-1.31-3.38,2.97-4.07,1.38-9.28c1.47,1.77,1.75,2.94,1.78,3.85
				c0.03,1.39-0.25,2.46,0.56,3.69c0.66,0.98,1.69,1.58,2.75,2.4c0.72,0.57-0.09,1.33-0.53,1.67c-0.3,0.26-0.89,0.59-0.81,1.04
				c0.06,0.22,0.19,0.35,0.38,0.47c0.13,0.09,0.28,0.22,0.41,0.32c0.16,0.73-0.19,1.14-0.78,1.39c0.72,0.03,1.41,1.04,0.5,1.55
				c-0.66,0.41-0.19,0.6,0.03,1.17c0.59,1.64-0.81,2.08-2.19,2.05c-2.13-0.06-5.59-1.86-7.16-3.79c-0.06,1.99,6.22,8.68-7.09,12.81
				c-2.41,0.76-4.5,0.6-4.94,0.54c-1.22-0.25-1.78-0.88-1.78-2.21c0-4.13,10.81-17.8,10.81-21.34c0.08-2.62-3.24-2.06-4.94-1.77
				c-0.56,0.19-0.81,0.35-0.81,0.47c0,0.35,1.06-0.03,1.06,1.58c0,3.95-9.94,15.15-9.94,20.77c0,3,5.47,3.63,7.66,3.63
				C617.41,68.49,636.02,32.47,604.94,31.81z"/>
		</g>
		<g>
			<g>
				<g>
					<path class="st1" d="M549.71,95.75c-0.01,0-0.01,0-0.02,0c-1.18-0.26-2.37,0.48-2.69,1.65c-0.42,1.53,0.07,3.13,2.19,2.1
						l-0.15,0.67c-4.97,1.94-3.17-6.5,0.85-5.11L549.71,95.75z"/>
					<path class="st1" d="M554.63,97.91c-0.27,0.97-0.93,1.79-1.81,2.28c-3.21,1.79-2.98-5.25,0.48-5.35
						C554.78,94.89,555.01,96.52,554.63,97.91z M553.7,95.55c-0.18-0.07-0.41-0.08-0.59-0.04c-0.36,0.08-0.65,0.33-0.88,0.61
						c-0.44,0.53-0.71,1.19-0.86,1.86c-0.09,0.38-0.19,0.82-0.05,1.2c0.17,0.46,0.71,0.7,1.16,0.48c1.1-0.55,1.5-2.2,1.59-3.32
						c0.01-0.15,0.02-0.29-0.02-0.43C553.98,95.73,553.85,95.62,553.7,95.55z"/>
					<path class="st1" d="M555.61,99.46c1.35,0.88,4.44-0.52,1.59-1.64c-2.74-1.25-0.02-3.78,2.28-2.8l-0.18,0.7
						c-0.69-0.09-2.25-0.49-2.48,0.53c-0.14,1.09,2.22,1.14,2.22,2.31c0,1.74-2.2,2.28-3.64,1.57L555.61,99.46z"/>
					<path class="st1" d="M584.12,99.46c1.35,0.88,4.44-0.52,1.59-1.64c-2.74-1.25-0.02-3.78,2.28-2.8l-0.18,0.7
						c-0.69-0.09-2.25-0.49-2.48,0.53c-0.14,1.09,2.22,1.14,2.22,2.31c0,1.74-2.2,2.28-3.64,1.57L584.12,99.46z"/>
					<path class="st1" d="M560.85,96.5c0.01-0.05,0.02-0.11,0.04-0.16c0.1-0.44,0.2-0.89,0.2-1.35c0.28,0,0.56,0,0.84,0
						c-0.07,0.95-0.28,1.9-0.61,2.79c0.38-0.59,1.89-3.64,2.91-2.73c0.21,0.19,0.29,0.49,0.23,0.77c-0.13,0.61-0.42,1.71-0.49,2.03
						c0.44-0.79,0.98-1.47,1.5-2.2c0.21-0.3,0.47-0.58,0.82-0.68c0.35-0.1,0.79,0.04,0.91,0.38c0.06,0.19,0.02,0.4-0.03,0.6
						c-0.28,1.21-0.56,2.42-0.85,3.64c-0.02,0.07-0.03,0.14,0,0.21c0.07,0.16,0.32,0.1,0.47,0.02c0.04,0.15-0.06,0.31-0.18,0.4
						c-0.13,0.09-0.29,0.11-0.44,0.12c-0.21,0.01-0.46-0.01-0.6-0.17c-0.17-0.19-0.11-0.48-0.05-0.73c0.23-0.92,0.46-1.84,0.7-2.76
						c0.04-0.18,0.27-0.75,0.1-0.89c-0.15-0.13-0.5,0.12-0.6,0.24c-0.44,0.53-0.77,1.23-1.11,1.85c-0.24,0.44-0.47,0.89-0.68,1.34
						c-0.05,0.1-0.41,1.08-0.48,1.08c0,0-0.74,0-0.74,0c0.11-0.72,0.33-1.48,0.5-2.2c0.09-0.4,0.19-0.79,0.27-1.19
						c0.05-0.23,0.39-1.14,0.02-1.12c-0.32,0.01-0.64,0.61-0.8,0.84c-0.81,1.13-1.38,2.41-1.93,3.68c-0.25,0-0.5,0-0.76,0
						C560.27,99.01,560.56,97.76,560.85,96.5z"/>
					<path class="st1" d="M570.01,99.82c0.53,0,0.99-0.15,1.63-0.59l-0.13,0.8c-4.37,2.21-4.23-3.82-1.33-4.93
						c0.49-0.19,1.04-0.17,1.51,0.05c2.04,0.95-1.13,3.34-2.93,3.5C568.83,99.42,569.27,99.82,570.01,99.82z M568.78,98.06
						c1.06-0.29,2.44-0.93,2.9-1.81c0.13-0.25,0.04-0.55-0.21-0.67C570.45,95.08,568.97,96.72,568.78,98.06z"/>
					<path class="st1" d="M574.88,95.61l-0.59,2.66c-0.2,1.02-0.2,1.05-0.2,1.16c0.04,0.53,1.21,0.22,1.5,0.05l-0.13,0.68
						c-3.46,1.09-1.68-2.68-1.41-4.56h-0.76l0.13-0.62h0.77l0.35-1.61h0.82l-0.36,1.61h1.59l-0.14,0.62H574.88z"/>
					<path class="st1" d="M578.73,94.99c0.06,0.79-0.75,3.59-0.89,4.4c-0.17,0.56,0,0.58,0.44,0.43l-0.09,0.35
						c-0.94,0.37-1.51,0.13-1.14-0.94c0.14-0.81,0.93-3.6,0.87-4.24H578.73z M579.29,93.21c0.04,0.84-0.92,1.2-0.97,0.34
						C578.25,92.81,579.24,92.32,579.29,93.21z"/>
					<path class="st1" d="M583.49,95.75c-0.01,0-0.01,0-0.02,0c-1.18-0.26-2.37,0.48-2.69,1.65c-0.42,1.53,0.07,3.13,2.19,2.1
						l-0.15,0.67c-4.97,1.94-3.17-6.5,0.85-5.11L583.49,95.75z"/>
					<path class="st1" d="M592.95,95.5c0.04-0.21,0.05-0.34,0.03-0.55h0.46c-0.01,0.95-0.6,3-0.76,3.96
						c0.26-0.86,3.11-5.13,3.96-3.79c0.11,0.18,0.14,0.4,0.09,0.61c-0.16,0.77-0.64,2.96-0.68,3.16c0.05-0.31,0.32-0.65,0.48-0.9
						c0.27-0.44,0.57-0.86,0.89-1.27c0.49-0.63,1.19-1.62,2.01-1.84c0.63-0.17,0.77,0.54,0.67,1.02c-0.28,1.36-0.57,2.72-0.85,4.08
						c0.01,0.25,0.44,0.07,0.59,0.05l-0.06,0.23c-0.72,0.22-1.21,0.12-0.91-0.75c0,0,0.55-2.67,0.78-3.78
						c0.04-0.21-0.18-0.38-0.37-0.28c-1.58,0.84-2.71,3.22-3.52,4.8h-0.41l0.95-4.64c0.03-0.14-0.1-0.28-0.24-0.23
						c-1.51,0.46-2.99,3.43-3.7,4.88h-0.41L592.95,95.5z"/>
					<path class="st1" d="M601.12,97.51c0.31-0.99,1.02-1.96,1.92-2.4c0.68-0.34,1.52-0.36,2.12,0.1c2.35,1.78-2.43,7.45-3.91,4.31
						C600.96,98.89,600.92,98.17,601.12,97.51z M602.25,99.98c1.48,0.35,2.85-1.6,3.04-3.27c0.1-0.9-0.72-1.68-1.6-1.43
						c-1.24,0.35-2.28,2.1-2.32,3.53C601.36,99.35,601.72,99.85,602.25,99.98z"/>
					<path class="st1" d="M607.41,95.26c0.01-0.07,0-0.22,0-0.3h0.47c-0.01,0.96-0.59,2.78-0.78,3.73c0.75-1.49,1.57-4.32,3.47-3.67
						l-0.11,0.35c-1.52-0.73-3.22,3.48-3.67,4.91h-0.41L607.41,95.26z"/>
					<path class="st1" d="M613.85,100.02c-4.71,1.93-4.37-4.05-1.09-5.03c0.53-0.16,1.11-0.12,1.6,0.14
						c1.98,1.07-2.07,3.45-3.7,3.48c0.13,1.79,2.29,1.53,3.53,0.96l-0.11,0.37L613.85,100.02z M610.63,98.24
						c1.51-0.36,3.31-0.94,3.87-2.3c0.1-0.24-0.03-0.53-0.27-0.63C612.74,94.7,610.68,96.75,610.63,98.24z"/>
					<path class="st1" d="M617.76,95.33l0.07-0.37h0.92l0.35-1.62l0.46,0l-0.34,1.62h2.02l-0.07,0.37c0,0-2.05,0-2.05,0
						c-0.07,0.09-0.07,0.38-0.1,0.5c-0.04,0.2-0.09,0.4-0.13,0.6c-0.09,0.4-0.19,0.79-0.27,1.19c-0.13,0.6-0.48,1.58-0.09,2.14
						c0.16,0.23,0.47,0.27,0.73,0.27c0.11,0,0.96-0.05,0.98-0.17c0,0-0.08,0.37-0.08,0.37c-3.7,1.09-1.74-3.08-1.49-4.9H617.76z"/>
					<path class="st1" d="M622.48,93.02c0.01-0.06-0.01-0.15-0.02-0.21h0.46c0.09,0.79-1.03,5.24-1.16,6.1
						c0.39-0.94,4.12-5.74,4.48-3.35c0,0-0.06,0.24-0.06,0.24l-1.03,4.1c-0.03,0.11,0.06,0.23,0.17,0.22
						c0.13-0.01,0.27-0.07,0.37-0.08l-0.06,0.23c-0.65,0.19-1.22,0.17-0.92-0.67c0,0,1.09-4.34,1.09-4.34
						c-1.96,0.75-3.47,3.21-4.4,5.01h-0.39L622.48,93.02z"/>
					<path class="st1" d="M634.45,94.96c-0.01,0.95-0.6,3-0.76,3.96c0.26-0.87,4.18-5.57,4.43-3.54c0.03,0.22,0,0.43-0.05,0.65
						c-0.22,0.87-1,3.85-1,3.85c-0.08,0.37,0.36,0.21,0.57,0.16l-0.05,0.23c-0.46,0.13-1.19,0.23-0.97-0.49c0,0,0.05-0.19,0.05-0.19
						l1.1-4.29c-1.59,0.23-3.67,3.38-4.4,4.96h-0.41c0.03-0.26,1.17-5.23,1.03-5.31H634.45z"/>
					<path class="st1" d="M644.7,95.28c-0.01,0-0.01,0-0.02,0c-1.29-0.25-2.58,0.53-2.98,1.77c-0.57,1.77,0.03,3.86,2.4,2.57
						l-0.1,0.37c-4.64,2.08-3.4-6.17,0.79-5.09L644.7,95.28z"/>
					<path class="st1" d="M649.2,99.88c-0.1,0.37,0.36,0.21,0.57,0.16l-0.05,0.23c-0.46,0.13-1.18,0.24-0.97-0.48
						c0,0,0.04-0.2,0.04-0.2s0.73-3.14,0.73-3.15c-0.21,0.88-1.11,1.86-1.73,2.48c-0.51,0.51-1.21,1.15-1.96,1.28
						c-1.68,0.27-0.54-2.67-0.24-3.31c0.81-1.73,2.45-2.18,4.25-2c0.03,0,0.38,0.05,0.38,0.05C650.22,94.95,649.2,99.88,649.2,99.88
						z M649.74,95.24c-2.06-0.13-3.37,0.34-4.02,2.38c-0.18,0.66-0.62,1.93-0.12,2.34C647.42,99.16,649.12,96.99,649.74,95.24z"/>
					<path class="st1" d="M631.32,99.88c-0.1,0.37,0.36,0.21,0.57,0.16l-0.05,0.23c-0.46,0.13-1.18,0.24-0.97-0.48
						c0,0,0.04-0.2,0.04-0.2s0.73-3.14,0.73-3.15c-0.21,0.88-1.11,1.86-1.73,2.48c-0.51,0.51-1.21,1.15-1.96,1.28
						c-1.68,0.27-0.54-2.67-0.24-3.31c0.81-1.73,2.45-2.18,4.25-2c0.03,0,0.38,0.05,0.38,0.05
						C632.34,94.95,631.32,99.88,631.32,99.88z M631.86,95.24c-2.06-0.13-3.37,0.34-4.02,2.38c-0.18,0.66-0.62,1.93-0.12,2.34
						C629.54,99.16,631.23,96.99,631.86,95.24z"/>
					<path class="st1" d="M651.88,95.26c0.01-0.07,0-0.22,0-0.3h0.47c-0.01,0.96-0.59,2.78-0.78,3.73c0.75-1.49,1.57-4.32,3.47-3.67
						l-0.11,0.35c-1.52-0.73-3.22,3.48-3.67,4.91h-0.41L651.88,95.26z"/>
					<path class="st1" d="M658.32,100.02c-4.71,1.93-4.37-4.05-1.09-5.03c0.53-0.16,1.11-0.12,1.6,0.14
						c1.98,1.07-2.07,3.45-3.7,3.48c0.13,1.79,2.29,1.53,3.53,0.96l-0.11,0.37L658.32,100.02z M655.1,98.24
						c1.51-0.36,3.32-0.95,3.87-2.31c0.1-0.24-0.03-0.51-0.26-0.61C657.23,94.69,655.16,96.75,655.1,98.24z"/>
				</g>
				<g>
					<g>
						<path class="st1" d="M546.02,89.11c0.39-0.02,0.7-0.07,0.94-0.16c0.23-0.09,0.45-0.23,0.64-0.42
							c0.21-0.21,0.35-0.49,0.43-0.82c0.08-0.33,0.12-0.84,0.12-1.53v-7.43c0-0.74-0.05-1.28-0.14-1.62
							c-0.09-0.34-0.27-0.62-0.53-0.85c-0.33-0.28-0.81-0.43-1.45-0.46v-0.23h5.55c1.23,0,2.01,0.01,2.35,0.04
							c1.42,0.11,2.62,0.51,3.61,1.21c0.94,0.67,1.67,1.54,2.2,2.62c0.52,1.08,0.79,2.25,0.79,3.52c0,0.93-0.15,1.8-0.45,2.63
							c-0.3,0.82-0.71,1.51-1.25,2.05c-0.75,0.77-1.68,1.25-2.79,1.46c-0.83,0.16-1.68,0.23-2.55,0.23h-7.45V89.11z M550.35,75.89
							v10.02c0,0.66,0.04,1.16,0.11,1.5c0.07,0.34,0.21,0.63,0.41,0.88c0.43,0.52,1.13,0.79,2.1,0.79c0.83,0,1.53-0.14,2.12-0.41
							c0.59-0.27,1.11-0.72,1.58-1.33c0.46-0.59,0.81-1.27,1.04-2.03c0.24-0.76,0.36-1.57,0.36-2.44c0-0.96-0.14-1.86-0.43-2.72
							c-0.29-0.86-0.7-1.61-1.24-2.26c-0.75-0.9-1.64-1.49-2.67-1.77c-0.56-0.15-1.28-0.23-2.16-0.23H550.35z"/>
						<path class="st1" d="M562.44,82.9c0-1.13,0.24-2.18,0.73-3.14c0.48-0.97,1.19-1.81,2.12-2.53c0.69-0.53,1.44-0.94,2.24-1.23
							s1.61-0.43,2.42-0.43c1.03,0,2.04,0.23,3,0.68c0.97,0.45,1.82,1.1,2.54,1.92c1.18,1.34,1.77,2.88,1.77,4.59
							c0,0.86-0.15,1.69-0.46,2.49c-0.31,0.8-0.76,1.53-1.35,2.19c-0.73,0.82-1.58,1.46-2.58,1.91c-0.99,0.45-2.03,0.68-3.11,0.68
							c-1.07,0-2.09-0.22-3.07-0.66c-0.97-0.44-1.82-1.06-2.52-1.86c-0.56-0.63-0.99-1.34-1.29-2.14
							C562.59,84.59,562.44,83.77,562.44,82.9z M564.88,83.06c0,1.95,0.53,3.6,1.59,4.93c0.48,0.6,0.98,1.03,1.52,1.31
							c0.53,0.27,1.15,0.41,1.85,0.41c0.71,0,1.33-0.13,1.86-0.4c0.53-0.27,1.04-0.71,1.53-1.31c1.06-1.34,1.59-3,1.59-4.97
							c0-1.08-0.15-2.11-0.44-3.07s-0.7-1.79-1.24-2.46c-0.43-0.55-0.91-0.95-1.44-1.21c-0.53-0.25-1.15-0.38-1.87-0.38
							c-0.71,0-1.33,0.13-1.85,0.37c-0.52,0.25-1,0.65-1.45,1.21c-0.53,0.67-0.94,1.48-1.23,2.45
							C565.03,80.91,564.88,81.94,564.88,83.06z"/>
						<path class="st1" d="M579.21,89.65l0.03-4.16l0.23,0.01c0.28,1.06,0.62,1.89,1.01,2.5c0.73,1.13,1.65,1.69,2.76,1.69
							c0.77,0,1.41-0.26,1.92-0.78c0.5-0.52,0.76-1.17,0.76-1.97c0-0.34-0.06-0.69-0.17-1.05c-0.11-0.36-0.26-0.66-0.45-0.92
							c-0.2-0.26-0.47-0.51-0.82-0.76c-0.35-0.24-0.89-0.55-1.62-0.92c-0.64-0.32-1.13-0.6-1.47-0.82
							c-0.34-0.22-0.61-0.45-0.82-0.68c-0.58-0.63-0.87-1.4-0.87-2.31c0-0.56,0.11-1.1,0.34-1.61c0.23-0.52,0.54-0.96,0.94-1.33
							c0.71-0.66,1.56-0.99,2.53-0.99c0.32,0,0.61,0.03,0.88,0.1c0.27,0.06,0.63,0.19,1.08,0.38c0.34,0.13,0.57,0.22,0.69,0.26
							c0.12,0.04,0.23,0.06,0.32,0.06c0.23,0,0.39-0.17,0.47-0.51h0.23l0.07,4h-0.23c-0.18-0.64-0.34-1.13-0.47-1.47
							c-0.13-0.34-0.29-0.65-0.47-0.94c-0.33-0.52-0.69-0.91-1.09-1.16c-0.4-0.25-0.85-0.38-1.37-0.38c-0.75,0-1.35,0.26-1.78,0.77
							c-0.18,0.21-0.32,0.45-0.43,0.74c-0.1,0.28-0.16,0.57-0.16,0.85c0,1.12,0.72,2.03,2.17,2.72l1.42,0.69
							c1.09,0.52,1.88,1.09,2.37,1.71c0.55,0.7,0.83,1.51,0.83,2.44c0,0.62-0.12,1.21-0.37,1.77c-0.35,0.79-0.87,1.39-1.57,1.82
							c-0.7,0.43-1.52,0.64-2.47,0.64c-0.87,0-1.7-0.17-2.5-0.51c-0.42-0.18-0.67-0.29-0.75-0.31s-0.17-0.04-0.27-0.04
							c-0.32,0-0.54,0.16-0.67,0.48H579.21z"/>
					</g>
					<g>
						<path class="st1" d="M591.97,89.34V89.1c0.68,0,1.2-0.19,1.57-0.57c0.21-0.21,0.35-0.49,0.43-0.82
							c0.08-0.33,0.12-0.84,0.12-1.53v-7.43c0-0.71-0.04-1.24-0.13-1.58c-0.08-0.34-0.24-0.62-0.47-0.83
							c-0.19-0.17-0.4-0.3-0.63-0.38c-0.23-0.08-0.53-0.13-0.89-0.14v-0.23h6.44v0.23c-0.37,0.02-0.67,0.07-0.91,0.15
							c-0.24,0.08-0.44,0.21-0.63,0.38c-0.23,0.22-0.38,0.5-0.46,0.84c-0.08,0.34-0.12,0.86-0.12,1.56v5.82c0,0.89,0.02,1.56,0.07,2
							c0.05,0.44,0.14,0.79,0.27,1.07c0.23,0.49,0.58,0.84,1.05,1.06c0.46,0.22,1.08,0.34,1.85,0.34c0.8,0,1.47-0.11,2.02-0.32
							c0.55-0.21,1-0.54,1.35-0.98c0.24-0.3,0.43-0.64,0.58-1.03c0.15-0.38,0.29-0.89,0.42-1.51l0.24,0.02l-0.13,4.13H591.97z"/>
						<path class="st1" d="M610.87,75.58v0.23c-0.38,0.02-0.7,0.07-0.94,0.16c-0.24,0.09-0.45,0.23-0.64,0.42
							c-0.22,0.23-0.37,0.51-0.44,0.85c-0.07,0.34-0.11,0.91-0.11,1.74v5.71c0,0.93,0.04,1.6,0.11,2.01
							c0.07,0.41,0.21,0.8,0.43,1.14c0.32,0.53,0.72,0.92,1.19,1.16c0.47,0.24,1.07,0.36,1.79,0.36c0.7,0,1.37-0.11,2-0.32
							c0.64-0.21,1.17-0.51,1.59-0.88c0.26-0.23,0.46-0.49,0.58-0.77s0.21-0.63,0.25-1.05c0.03-0.28,0.04-0.93,0.04-1.96v-5.64
							c0-0.69-0.04-1.2-0.12-1.53c-0.08-0.33-0.22-0.6-0.43-0.82c-0.19-0.2-0.4-0.34-0.64-0.42c-0.24-0.09-0.55-0.14-0.93-0.16
							v-0.23h4.65v0.23c-0.38,0.02-0.69,0.07-0.93,0.16c-0.24,0.09-0.45,0.23-0.64,0.42c-0.21,0.21-0.35,0.49-0.43,0.82
							c-0.08,0.33-0.12,0.84-0.12,1.53v6.36c0,0.94-0.07,1.64-0.22,2.08c-0.14,0.45-0.43,0.86-0.86,1.22
							c-0.98,0.85-2.38,1.27-4.21,1.27c-1.9,0-3.3-0.4-4.2-1.2c-0.58-0.51-0.93-1.18-1.05-2.02c-0.04-0.29-0.06-0.83-0.06-1.6v-6.12
							c0-0.69-0.04-1.2-0.11-1.53c-0.07-0.33-0.22-0.6-0.43-0.82c-0.18-0.2-0.39-0.34-0.63-0.42c-0.24-0.09-0.55-0.14-0.94-0.16
							v-0.23H610.87z"/>
						<path class="st1" d="M622.64,77.4v8.77c0,0.69,0.04,1.2,0.12,1.53c0.08,0.33,0.22,0.6,0.43,0.82c0.19,0.2,0.4,0.34,0.64,0.42
							c0.24,0.09,0.55,0.14,0.93,0.16v0.23h-4.65v-0.23c0.38-0.02,0.69-0.07,0.93-0.16c0.24-0.09,0.45-0.23,0.64-0.42
							c0.21-0.21,0.35-0.49,0.43-0.82c0.08-0.33,0.12-0.84,0.12-1.53v-7.44c0-0.68-0.04-1.18-0.12-1.52
							c-0.08-0.33-0.22-0.61-0.43-0.82c-0.18-0.2-0.39-0.34-0.63-0.42c-0.24-0.09-0.55-0.14-0.94-0.16v-0.23H624l8.19,10.45v-7.28
							c0-0.69-0.04-1.2-0.12-1.53c-0.08-0.33-0.22-0.6-0.43-0.82c-0.19-0.2-0.4-0.34-0.64-0.42c-0.24-0.09-0.55-0.14-0.93-0.16
							v-0.23h4.65v0.23c-0.67,0-1.2,0.2-1.57,0.58c-0.21,0.21-0.35,0.49-0.43,0.82c-0.08,0.33-0.12,0.84-0.12,1.52v10.61h-0.45
							L622.64,77.4z"/>
						<path class="st1" d="M649.75,89.34h-6.63v-0.23c0.6-0.05,1.02-0.15,1.25-0.3c0.42-0.26,0.63-0.62,0.63-1.09
							c0-0.28-0.09-0.65-0.28-1.11l-0.17-0.42l-0.97-2.38h-4.44l-0.52,1.39l-0.25,0.63c-0.3,0.74-0.45,1.32-0.45,1.74
							c0,0.25,0.06,0.48,0.17,0.7c0.11,0.22,0.26,0.39,0.45,0.52c0.26,0.18,0.6,0.29,1.01,0.32v0.23h-4.52v-0.23
							c0.36-0.02,0.67-0.11,0.94-0.26c0.27-0.15,0.53-0.4,0.79-0.75c0.22-0.28,0.43-0.63,0.63-1.06c0.2-0.43,0.48-1.08,0.81-1.95
							l3.69-9.51h0.58l4.39,10.6c0.33,0.8,0.59,1.37,0.79,1.71c0.2,0.34,0.41,0.6,0.64,0.78c0.16,0.12,0.35,0.21,0.55,0.28
							c0.21,0.06,0.52,0.12,0.94,0.17V89.34z M643.42,83.39l-2.12-5.22l-2,5.22H643.42z"/>
						<path class="st1" d="M650.53,89.65l0.03-4.16l0.23,0.01c0.28,1.06,0.62,1.89,1.01,2.5c0.73,1.13,1.65,1.69,2.76,1.69
							c0.77,0,1.41-0.26,1.92-0.78c0.5-0.52,0.76-1.17,0.76-1.97c0-0.34-0.06-0.69-0.17-1.05c-0.11-0.36-0.26-0.66-0.45-0.92
							c-0.2-0.26-0.47-0.51-0.82-0.76c-0.35-0.24-0.89-0.55-1.62-0.92c-0.64-0.32-1.13-0.6-1.47-0.82
							c-0.34-0.22-0.61-0.45-0.82-0.68c-0.58-0.63-0.87-1.4-0.87-2.31c0-0.56,0.11-1.1,0.34-1.61c0.23-0.52,0.54-0.96,0.94-1.33
							c0.71-0.66,1.56-0.99,2.53-0.99c0.32,0,0.61,0.03,0.88,0.1c0.27,0.06,0.63,0.19,1.08,0.38c0.34,0.13,0.57,0.22,0.69,0.26
							c0.12,0.04,0.23,0.06,0.32,0.06c0.23,0,0.39-0.17,0.47-0.51h0.23l0.07,4h-0.23c-0.18-0.64-0.34-1.13-0.47-1.47
							c-0.13-0.34-0.29-0.65-0.47-0.94c-0.33-0.52-0.69-0.91-1.09-1.16c-0.4-0.25-0.85-0.38-1.37-0.38c-0.75,0-1.35,0.26-1.78,0.77
							c-0.18,0.21-0.32,0.45-0.43,0.74c-0.1,0.28-0.16,0.57-0.16,0.85c0,1.12,0.72,2.03,2.17,2.72l1.42,0.69
							c1.09,0.52,1.88,1.09,2.37,1.71c0.55,0.7,0.83,1.51,0.83,2.44c0,0.62-0.12,1.21-0.37,1.77c-0.35,0.79-0.87,1.39-1.57,1.82
							c-0.7,0.43-1.52,0.64-2.47,0.64c-0.87,0-1.7-0.17-2.5-0.51c-0.42-0.18-0.67-0.29-0.75-0.31s-0.17-0.04-0.27-0.04
							c-0.32,0-0.54,0.16-0.67,0.48H650.53z"/>
					</g>
				</g>
			</g>
		</g>
	</g>
</g>
</svg>
