<svg version="1.2" xmlns="http://www.w3.org/2000/svg" viewBox="0 0 100 100" width="100" height="100">
	<title>Dos_Lunas_Logo-Head-svg</title>
	<defs>
		<linearGradient id="g1" x1="36.2" y1="50.6" x2="96.5" y2="50.6" gradientUnits="userSpaceOnUse">
			<stop offset="0" stop-color="#c19561"/>
			<stop offset="1" stop-color="#fbc983"/>
		</linearGradient>
	</defs>
	<style>
		.s0 { fill: url(#g1) } 
		.s1 { fill: #231f20 } 
	</style>
	<g id="Layer">
		<g id="Layer">
			<path id="Layer" class="s0" d="m84.1 47.3c3.4-4.8 7.8-8.3 12.4-10.3-3.7 2.2-7.1 5.3-9.9 9.3-3.3 4.7-4.7 10.5-7.6 15.5-8.3 14.7-26 23.3-42.8 20.7 11.5-0.6 23.2-5.1 31.7-13.1 11.2-10.1 20-32.2 2.9-41.4 0.2-3 0.8-6.2-0.9-9.8 10.2 5.6 15.1 17.3 14.2 29.1z"/>
			<path id="Layer" class="s1" d="m54.1 25.1c-21.9 0-49.6 14.8-49.6 32.5 0 6.1 4.1 8.1 8.4 8.1 2.1 0 4.2-0.4 6.1-1.2 1-0.4 2.1-0.8 3-1.4 0.4-0.4 0.8-0.7 1.1-1.2 0.3-0.7-0.2-1-0.8-0.6-2.4 1.7-5.1 3-8 2.1-2.3-0.8-3.4-2.9-3.3-5.2-0.2-5 3.1-10 6-13.8 3.9-5.1 8.8-9.5 14.5-12.5 3.6-1.9 9-4.5 13.1-3 1.3 0.6 2.3 1.4 3.2 2.3 4.2 4.7 2.9 13.5 9.1 17.3-2.1-5.4 4.7-6.5 2.2-14.7 2.3 2.8 2.7 4.6 2.8 6.1 0 2.2-0.4 3.9 0.9 5.8 1 1.6 2.7 2.5 4.3 3.8 1.2 0.9-0.1 2.2-0.8 2.7-0.5 0.4-1.4 0.9-1.3 1.6 0.1 0.4 0.3 0.6 0.6 0.8 0.2 0.1 0.5 0.3 0.7 0.5 0.2 1.2-0.3 1.8-1.3 2.2 1.2 0.1 2.3 1.7 0.8 2.5-1 0.6-0.3 0.9 0.1 1.8 0.9 2.6-1.3 3.3-3.5 3.3-3.4-0.1-8.9-3-11.4-6-0.1 3.1 9.9 13.7-11.2 20.3-3.8 1.2-7.1 0.9-7.8 0.8-2-0.4-2.8-1.4-2.8-3.5 0-6.5 17.1-28.2 17.1-33.8 0.1-4.2-5.1-3.3-7.8-2.8-0.9 0.3-1.3 0.5-1.3 0.7 0 0.6 1.7 0 1.7 2.5 0 6.3-15.8 24.1-15.8 33 0 4.7 8.7 5.7 12.2 5.7 38.5 1.4 68-55.7 18.8-56.7z"/>
		</g>
	</g>
</svg>