<svg version="1.2" xmlns="http://www.w3.org/2000/svg" viewBox="0 0 288 71" width="288" height="71">
	<title>Dos Lunas Website logo-svg</title>
	<defs>
		<linearGradient id="g1" x1="35.2" y1="35.6" x2="95.5" y2="35.6" gradientUnits="userSpaceOnUse">
			<stop offset="0" stop-color="#c19561"/>
			<stop offset="1" stop-color="#fbc983"/>
		</linearGradient>
	</defs>
	<style>
		.s0 { fill: #231f20 } 
		.s1 { fill: url(#g1) } 
	</style>
	<g id="Layer">
		<g id="Layer">
			<g id="Layer">
				<g id="Layer">
					<path id="Layer" class="s0" d="m110.8 46.4c-6.4-2.2-9.2 11.1-1.4 8.1l0.3-1.1c-3.4 1.6-4.2-0.9-3.5-3.3 0.5-1.9 2.4-3.1 4.3-2.7q0 0 0 0z"/>
					<path id="Layer" fill-rule="evenodd" class="s0" d="m118.3 50.9c-0.4 1.5-1.5 2.8-2.9 3.6-5.1 2.8-4.7-8.3 0.8-8.5 2.3 0.1 2.7 2.7 2.1 4.9zm-1.5-3.8c-0.3-0.1-0.6-0.1-0.9 0-0.6 0.1-1.1 0.5-1.4 0.9-0.7 0.9-1.2 1.9-1.4 3-0.1 0.6-0.3 1.3-0.1 1.9 0.3 0.7 1.2 1.1 1.9 0.8 1.7-0.9 2.4-3.5 2.5-5.3q0-0.4 0-0.7c-0.1-0.3-0.3-0.5-0.6-0.6z"/>
					<path id="Layer" class="s0" d="m119.8 53.3c2.2 1.4 7.1-0.8 2.6-2.6-4.4-1.9-0.1-6 3.6-4.4l-0.3 1.1c-1.1-0.1-3.6-0.8-3.9 0.8-0.2 1.8 3.5 1.9 3.5 3.7 0 2.8-3.5 3.6-5.8 2.5z"/>
					<path id="Layer" class="s0" d="m165.1 53.3c2.1 1.4 7-0.8 2.5-2.6-4.4-1.9-0.1-6 3.6-4.4l-0.3 1.1c-1.1-0.1-3.6-0.8-3.9 0.8-0.2 1.8 3.5 1.9 3.5 3.7 0 2.8-3.5 3.6-5.8 2.5z"/>
					<path id="Layer" class="s0" d="m128.2 48.6q0-0.1 0-0.2c0.2-0.7 0.3-1.4 0.3-2.2q0.7 0 1.4 0c-0.1 1.6-0.5 3.1-1 4.5 0.6-1 3-5.8 4.6-4.4 0.3 0.3 0.5 0.8 0.4 1.3-0.2 0.9-0.7 2.7-0.8 3.2 0.7-1.3 1.5-2.4 2.4-3.5 0.3-0.5 0.7-0.9 1.3-1.1 0.5-0.1 1.2 0.1 1.4 0.6 0.1 0.3 0 0.6 0 1q-0.7 2.8-1.4 5.7 0 0.2 0 0.4c0.1 0.2 0.5 0.1 0.8 0 0 0.2-0.1 0.5-0.3 0.6-0.2 0.2-0.5 0.2-0.7 0.2-0.4 0-0.8 0-1-0.3-0.2-0.3-0.1-0.7-0.1-1.1q0.6-2.2 1.1-4.4c0.1-0.3 0.5-1.2 0.2-1.4-0.2-0.2-0.8 0.2-0.9 0.4-0.7 0.8-1.3 1.9-1.8 2.9q-0.6 1.1-1.1 2.1c-0.1 0.2-0.6 1.7-0.7 1.7h-1.2c0.2-1.1 0.5-2.3 0.8-3.5q0.2-0.9 0.4-1.9c0.1-0.3 0.6-1.8 0-1.7-0.5 0-1 0.9-1.2 1.3-1.3 1.8-2.2 3.8-3.1 5.8q-0.6 0-1.2 0 0.7-3 1.4-6z"/>
					<path id="Layer" fill-rule="evenodd" class="s0" d="m140.7 52c2.8-0.2 7.9-4 4.6-5.5-0.7-0.4-1.6-0.4-2.4-0.1-4.6 1.8-4.8 11.3 2.2 7.8l0.2-1.2c-1 0.7-1.8 0.9-2.6 0.9-1.2 0-1.9-0.6-2-1.9zm0-0.9c1.7-0.4 3.9-1.5 4.6-2.9 0.2-0.4 0.1-0.8-0.3-1-1.6-0.8-4 1.8-4.3 3.9z"/>
					<path id="Layer" class="s0" d="m150.4 47.2l-0.9 4.2c-0.4 1.7-0.4 1.7-0.4 1.9 0.1 0.8 2 0.3 2.4 0.1l-0.2 1c-5.5 1.8-2.6-4.2-2.2-7.2h-1.2l0.2-1h1.2l0.5-2.5h1.3l-0.5 2.5h2.5l-0.2 1h-2.5z"/>
					<path id="Layer" class="s0" d="m156.5 46.2c0.1 1.3-1.2 5.7-1.4 7-0.3 0.9 0 0.9 0.7 0.7l-0.1 0.5c-1.5 0.6-2.4 0.3-1.8-1.4 0.2-1.3 1.4-5.8 1.3-6.8zm0.9-2.8c0.1 1.3-1.4 1.9-1.5 0.6-0.1-1.2 1.4-2 1.5-0.6z"/>
					<path id="Layer" class="s0" d="m164.3 46.4c-6.3-2.2-9.2 11.1-1.3 8.1l0.2-1.1c-3.3 1.6-4.1-0.9-3.4-3.3 0.5-1.9 2.4-3.1 4.2-2.7q0 0 0.1 0z"/>
					<path id="Layer" class="s0" d="m179.1 47.1c0-0.4 0-0.6 0-0.9h0.7c0 1.5-0.9 4.7-1.2 6.3 0.4-1.4 5-8.2 6.3-6.1q0.3 0.5 0.1 1c-0.2 1.2-1 4.7-1 5 0-0.5 0.5-1 0.7-1.4q0.7-1 1.4-2c0.8-1 1.9-2.6 3.2-2.9 1-0.3 1.2 0.8 1.1 1.6q-0.7 3.2-1.4 6.5c0.1 0.4 0.7 0.1 1 0l-0.1 0.4c-1.2 0.3-1.9 0.2-1.5-1.2 0 0 0.9-4.2 1.3-6 0-0.3-0.3-0.6-0.6-0.4-2.5 1.3-4.3 5.1-5.6 7.6h-0.6l1.5-7.4c0-0.2-0.2-0.4-0.4-0.3-2.4 0.7-4.8 5.4-5.9 7.7h-0.6z"/>
					<path id="Layer" fill-rule="evenodd" class="s0" d="m192 50.2c0.5-1.5 1.6-3.1 3.1-3.8 1-0.5 2.4-0.5 3.3 0.2 3.7 2.8-3.8 11.8-6.2 6.8-0.4-1-0.5-2.1-0.2-3.2zm1.8 4c2.3 0.5 4.5-2.6 4.8-5.2 0.2-1.5-1.1-2.7-2.5-2.3-2 0.6-3.6 3.3-3.7 5.6 0 0.9 0.6 1.6 1.4 1.9z"/>
					<path id="Layer" class="s0" d="m202 46.7c0-0.1 0-0.4 0-0.5h0.7c0 1.5-0.9 4.4-1.2 5.9 1.2-2.4 2.5-6.9 5.5-5.8l-0.2 0.5c-2.4-1.1-5.1 5.5-5.8 7.8h-0.7z"/>
					<path id="Layer" class="s0" d="m212.6 54.1l0.1-0.6c-1.9 0.9-5.4 1.3-5.6-1.5 2.6-0.1 9-3.8 5.9-5.5-0.8-0.4-1.7-0.5-2.5-0.3-5.2 1.6-5.8 11.1 1.7 8zm0.2-7.3c0.4 0.1 0.6 0.6 0.5 1-0.9 2.1-3.8 3.1-6.2 3.6 0.1-2.3 3.4-5.6 5.7-4.6z"/>
					<path id="Layer" class="s0" d="m219.8 46.8c-0.4 2.9-3.5 9.5 2.4 7.8l0.1-0.6c0 0.2-1.4 0.2-1.5 0.2-0.4 0-0.9 0-1.2-0.4-0.6-0.9-0.1-2.4 0.1-3.4q0.2-0.9 0.5-1.9 0.1-0.5 0.2-0.9c0-0.2 0-0.7 0.1-0.8h3.3l0.1-0.6h-3.2l0.5-2.6h-0.7l-0.5 2.6h-1.5l-0.1 0.6z"/>
					<path id="Layer" class="s0" d="m225.9 43.1c0-0.1 0-0.2-0.1-0.3h0.8c0.1 1.2-1.7 8.3-1.9 9.7 0.7-1.5 6.6-9.1 7.1-5.3l-0.1 0.3-1.6 6.5c-0.1 0.2 0.1 0.4 0.3 0.4 0.2 0 0.4-0.1 0.6-0.2l-0.1 0.4c-1.1 0.3-2 0.3-1.5-1l1.7-6.9c-3.1 1.2-5.5 5.1-7 7.9h-0.6z"/>
					<path id="Layer" class="s0" d="m244.9 46.2c-0.1 1.5-1 4.8-1.3 6.3 0.4-1.4 6.7-8.8 7.1-5.6 0 0.3 0 0.7-0.1 1-0.4 1.4-1.6 6.1-1.6 6.1-0.1 0.6 0.6 0.3 0.9 0.2l-0.1 0.4c-0.7 0.2-1.9 0.4-1.5-0.8l0.1-0.3 1.7-6.8c-2.5 0.4-5.8 5.4-7 7.9h-0.6c0-0.4 1.8-8.3 1.6-8.4h0.7z"/>
					<path id="Layer" class="s0" d="m261.3 46.1c-6.7-1.7-8.7 11.4-1.3 8.1l0.2-0.6c-3.8 2-4.7-1.3-3.8-4.1 0.6-2 2.6-3.2 4.7-2.8q0 0 0 0z"/>
					<path id="Layer" fill-rule="evenodd" class="s0" d="m268.2 54c-0.1 0.6 0.6 0.3 0.9 0.3v0.3c-0.8 0.2-1.9 0.4-1.6-0.8l0.1-0.3c0 0 1.1-4.9 1.1-5-0.3 1.4-1.7 3-2.7 4-0.8 0.8-1.9 1.8-3.1 2-2.7 0.4-0.9-4.2-0.4-5.3 1.3-2.7 3.9-3.4 6.8-3.1 0 0 0.6 0.1 0.6 0.1 0 0-1.7 7.8-1.7 7.8zm0.9-7.4c-3.3-0.2-5.3 0.6-6.4 3.8-0.3 1.1-0.9 3.1-0.2 3.7 2.9-1.2 5.6-4.7 6.6-7.5z"/>
					<path id="Layer" fill-rule="evenodd" class="s0" d="m239.9 54c-0.2 0.6 0.6 0.3 0.9 0.3l-0.1 0.3c-0.7 0.2-1.9 0.4-1.5-0.8v-0.3c0 0 1.2-4.9 1.2-5-0.3 1.4-1.8 3-2.8 4-0.8 0.8-1.9 1.8-3.1 2-2.6 0.4-0.8-4.2-0.3-5.3 1.2-2.7 3.8-3.4 6.7-3.1 0 0 0.6 0.1 0.6 0.1 0 0-1.6 7.8-1.6 7.8zm0.8-7.4c-3.2-0.2-5.3 0.6-6.3 3.8-0.3 1.1-1 3.1-0.2 3.7 2.9-1.2 5.5-4.7 6.5-7.5z"/>
					<path id="Layer" class="s0" d="m272.5 46.7c0-0.1 0-0.4 0-0.5h0.7c0 1.5-0.9 4.4-1.2 5.9 1.2-2.4 2.5-6.9 5.5-5.8l-0.2 0.5c-2.4-1.1-5.1 5.5-5.8 7.8h-0.6z"/>
					<path id="Layer" class="s0" d="m283.1 54.1l0.1-0.6c-1.9 0.9-5.3 1.3-5.6-1.5 2.6-0.1 9-3.8 5.9-5.5-0.8-0.4-1.7-0.5-2.5-0.3-5.2 1.6-5.8 11.1 1.7 8zm0.2-7.3c0.4 0.2 0.6 0.6 0.5 1-0.9 2.1-3.8 3.1-6.2 3.6 0.1-2.3 3.4-5.6 5.7-4.6z"/>
				</g>
				<g id="Layer">
					<g id="Layer">
						<path id="Layer" fill-rule="evenodd" class="s0" d="m104.7 36.9q0 0 0 0zm1.4-0.2q0.6-0.2 1.1-0.7 0.4-0.5 0.6-1.3 0.2-0.8 0.2-2.4v-11.8q0-1.7-0.2-2.6-0.2-0.8-0.8-1.3-0.8-0.7-2.3-0.7v-0.4h8.8q2.9 0 3.7 0.1 3.4 0.2 5.7 1.9 2.2 1.6 3.5 4.1 1.2 2.6 1.3 5.6-0.1 2.2-0.8 4.2-0.7 1.9-1.9 3.2-1.8 1.9-4.5 2.3-1.9 0.4-4 0.4h-11.8v-0.4q0.9 0 1.4-0.2zm5.4-20.7v15.9q0 1.5 0.2 2.3 0.1 0.9 0.6 1.4 1 1.3 3.4 1.3 1.9 0 3.3-0.7 1.4-0.6 2.5-2.1 1.1-1.4 1.7-3.2 0.5-1.8 0.5-3.9 0.1-2.2-0.6-4.3-0.7-2-2-3.5-1.8-2.2-4.2-2.9-1.4-0.3-3.5-0.3c0 0-1.9 0-1.9 0z"/>
						<path id="Layer" fill-rule="evenodd" class="s0" d="m130.7 27.1q0-2.7 1.1-5 1.2-2.3 3.4-4 1.6-1.3 3.6-2 1.9-0.7 3.8-0.7 2.4 0 4.8 1.1 2.3 1.1 4 3.1c1.9 2.1 2.8 4.5 2.8 7.2q0 2.1-0.7 4-0.8 1.9-2.2 3.5-1.7 1.9-4.1 3-2.3 1.1-4.9 1.1-2.5 0-4.9-1.1-2.3-1-4-2.9-1.3-1.5-2-3.4-0.7-1.9-0.7-3.9zm3.9 0.2q0 4.7 2.5 7.9 1.1 1.4 2.4 2 1.2 0.7 2.9 0.7 1.7 0 3-0.7 1.2-0.6 2.4-2 2.5-3.2 2.5-7.9 0-2.6-0.7-4.9-0.7-2.3-2-3.9-1-1.3-2.2-1.9-1.3-0.6-3-0.6-1.7 0-2.9 0.6-1.3 0.6-2.3 1.9-1.3 1.6-2 3.9c-0.4 1.5-0.6 3.1-0.6 4.9z"/>
						<path id="Layer" class="s0" d="m157.3 37.8v-6.6h0.4q0.6 2.5 1.6 4 1.7 2.6 4.4 2.6 1.8 0 3-1.2 1.2-1.2 1.2-3.1 0-0.8-0.3-1.7-0.2-0.8-0.7-1.4-0.4-0.7-1.3-1.2-0.8-0.6-2.5-1.5-1.6-0.8-2.4-1.3-0.8-0.5-1.3-1.1-1.4-1.5-1.4-3.6 0-1.4 0.6-2.6 0.5-1.2 1.5-2.1 1.7-1.6 4-1.6 0.8 0 1.4 0.2 0.6 0.1 1.7 0.6 0.8 0.3 1.1 0.4 0.3 0.1 0.5 0.1 0.5 0 0.7-0.8h0.4l0.1 6.3h-0.3q-0.5-1.5-0.8-2.3-0.3-0.8-0.7-1.5-0.8-1.2-1.8-1.8-0.9-0.6-2.1-0.6-1.8 0-2.9 1.2-0.4 0.5-0.6 1.2-0.3 0.6-0.3 1.3 0 2.7 3.5 4.3l2.2 1.1q2.6 1.2 3.8 2.7 1.3 1.7 1.3 3.9 0 1.5-0.6 2.8-0.8 1.9-2.5 2.9-1.7 1-3.9 1-2.1 0-4-0.8-1-0.5-1.2-0.5-0.2-0.1-0.4-0.1-0.8 0-1.1 0.8h-0.3z"/>
					</g>
					<g id="Layer">
						<path id="Layer" class="s0" d="m177.5 37.3v-0.4q1.6 0 2.5-0.9 0.5-0.5 0.7-1.3 0.2-0.8 0.2-2.4v-11.8q0-1.7-0.2-2.5-0.2-0.8-0.8-1.3-0.4-0.5-1-0.6-0.5-0.2-1.4-0.3v-0.3h10.2v0.3q-0.9 0.1-1.4 0.3-0.6 0.2-1 0.6-0.6 0.5-0.8 1.3-0.2 0.8-0.2 2.5v9.2q0 2.1 0.2 3.2 0.1 1 0.4 1.7 0.5 1.1 1.6 1.7 1.1 0.5 3 0.5 1.9 0 3.2-0.5 1.3-0.5 2.1-1.6 0.6-0.7 0.9-1.6 0.4-0.9 0.7-2.4l0.4 0.1-0.2 6.5h-19.1z"/>
						<path id="Layer" class="s0" d="m207.5 15.5v0.3q-0.9 0.1-1.5 0.3-0.6 0.2-1 0.7-0.6 0.5-0.7 1.3-0.2 0.8-0.2 2.8v9q0 2.2 0.2 3.2 0.1 1 0.6 1.8 0.8 1.3 1.9 1.9 1.2 0.5 2.9 0.5 1.6 0 3.2-0.5 1.5-0.5 2.5-1.4 0.6-0.5 0.9-1.2 0.3-0.7 0.4-1.7 0.1-0.6 0-3.1v-8.9q0.1-1.7-0.1-2.5-0.2-0.7-0.7-1.3-0.5-0.4-1-0.6-0.6-0.2-1.5-0.3v-0.3h7.4v0.3q-0.9 0.1-1.5 0.3-0.6 0.2-1 0.6-0.5 0.6-0.7 1.3-0.2 0.8-0.2 2.5v10.1q0 2.2-0.3 3.3-0.4 1-1.4 1.9-2.3 2-6.7 2-4.5 0-6.6-1.9-1.4-1.2-1.7-3.2-0.1-0.7-0.1-2.5v-9.7q0-1.7-0.2-2.5-0.1-0.7-0.6-1.3-0.5-0.4-1-0.6-0.6-0.2-1.5-0.3v-0.4h10.2v0.1z"/>
						<path id="Layer" class="s0" d="m226.1 18.3v14q0 1.6 0.2 2.4 0.2 0.8 0.7 1.3 0.4 0.5 1 0.7 0.6 0.2 1.5 0.2v0.4h-7.4v-0.4q0.9 0 1.5-0.2 0.5-0.2 1-0.7 0.5-0.5 0.7-1.3 0.2-0.8 0.2-2.4v-11.8q0-1.7-0.2-2.5-0.2-0.7-0.7-1.3-0.4-0.4-1-0.6-0.6-0.2-1.5-0.3v-0.3h6.2l13 16.5v-11.5q0-1.6-0.2-2.4-0.2-0.8-0.7-1.3-0.5-0.5-1-0.7-0.6-0.2-1.5-0.3v-0.3h7.4v0.3q-1.6 0-2.5 1-0.5 0.5-0.7 1.3-0.2 0.7-0.2 2.4v16.8h-0.7z"/>
						<path id="Layer" fill-rule="evenodd" class="s0" d="m258.6 37.3v-0.4q1.4-0.1 2-0.5 1-0.6 1-1.7 0-0.6-0.5-1.7l-0.2-0.7-1.6-3.8h-7l-0.8 2.2-0.4 1q-0.7 1.8-0.7 2.8 0 0.6 0.2 1.1 0.3 0.5 0.7 0.8 0.7 0.4 1.6 0.5v0.4h-7.1v-0.4q0.8 0 1.5-0.4 0.6-0.3 1.2-1.2 0.5-0.6 1-1.7 0.5-1 1.3-3.1l5.8-15h1l6.9 16.8q0.8 1.9 1.3 2.7 0.4 0.8 1 1.2 0.4 0.3 0.8 0.5 0.5 0.1 1.5 0.2v0.4zm0.5-9.5l-3.3-8.2-3.2 8.2z"/>
						<path id="Layer" class="s0" d="m270.4 37.8v-6.6h0.4q0.6 2.5 1.6 4 1.7 2.6 4.3 2.6 1.9 0 3.1-1.2 1.2-1.2 1.2-3.1 0-0.8-0.3-1.7-0.2-0.8-0.7-1.4-0.5-0.7-1.3-1.2-0.8-0.6-2.6-1.5-1.5-0.8-2.3-1.3-0.8-0.5-1.3-1.1-1.4-1.5-1.4-3.6 0-1.4 0.6-2.6 0.5-1.2 1.5-2.1 1.7-1.6 4-1.6 0.7 0 1.4 0.2 0.6 0.1 1.7 0.6 0.8 0.3 1.1 0.4 0.3 0.1 0.5 0.1 0.5 0 0.7-0.8h0.4l0.1 6.3h-0.4q-0.4-1.5-0.7-2.3-0.3-0.8-0.8-1.5-0.7-1.2-1.7-1.8-0.9-0.6-2.2-0.6-1.8 0-2.8 1.2-0.4 0.5-0.7 1.2-0.2 0.6-0.2 1.3 0 2.7 3.4 4.3l2.3 1.1q2.6 1.2 3.7 2.7 1.4 1.7 1.4 3.9 0 1.5-0.6 2.8-0.9 1.9-2.5 2.9-1.7 1-3.9 1-2.1 0-4-0.8-1-0.5-1.2-0.5-0.2-0.1-0.4-0.1-0.8 0-1.1 0.8h-0.3q0 0 0 0z"/>
					</g>
				</g>
			</g>
		</g>
		<g id="Layer">
			<path id="Layer" class="s1" d="m83.1 32.3c3.4-4.8 7.8-8.3 12.4-10.3-3.7 2.2-7.1 5.3-9.9 9.3-3.3 4.7-4.7 10.5-7.6 15.5-8.3 14.7-26 23.3-42.8 20.7 11.5-0.6 23.2-5.1 31.7-13.1 11.2-10.1 20-32.2 2.9-41.4 0.2-3 0.8-6.2-0.9-9.8 10.2 5.6 15.1 17.3 14.2 29.1z"/>
			<path id="Layer" class="s0" d="m53.1 10.1c-21.9 0-49.6 14.8-49.6 32.6 0 6 4.1 8 8.4 8 2.1 0 4.2-0.5 6.1-1.2 1-0.4 2.1-0.8 3-1.4 0.4-0.4 0.8-0.7 1.1-1.2 0.3-0.7-0.2-1-0.9-0.6-2.3 1.7-5 3-7.9 2.1-2.3-0.8-3.4-2.9-3.3-5.2-0.2-5 3.1-10 6-13.8 3.9-5.1 8.8-9.5 14.5-12.5 3.6-1.9 9-4.5 13.1-3 1.3 0.6 2.3 1.4 3.2 2.3 4.2 4.7 2.9 13.5 9.1 17.3-2.1-5.4 4.7-6.5 2.2-14.7 2.3 2.8 2.7 4.6 2.8 6.1 0 2.2-0.4 3.9 0.9 5.8 1 1.6 2.7 2.5 4.3 3.8 1.2 0.9-0.1 2.2-0.8 2.7-0.5 0.4-1.4 0.9-1.3 1.6 0.1 0.4 0.3 0.6 0.6 0.8 0.2 0.1 0.5 0.3 0.7 0.5 0.2 1.2-0.3 1.8-1.3 2.2 1.2 0.1 2.3 1.7 0.8 2.5-1 0.6-0.3 0.9 0.1 1.8 0.9 2.6-1.3 3.3-3.5 3.3-3.4-0.1-8.9-3-11.4-6-0.1 3.1 9.9 13.7-11.2 20.3-3.8 1.2-7.1 0.9-7.8 0.8-2-0.4-2.8-1.4-2.8-3.5 0-6.5 17.1-28.2 17.1-33.8 0.1-4.2-5.1-3.3-7.8-2.8-0.9 0.3-1.3 0.5-1.3 0.7 0 0.6 1.7 0 1.7 2.5 0 6.3-15.8 24.1-15.8 33 0 4.7 8.7 5.7 12.2 5.7 38.5 1.4 68-55.7 18.8-56.7z"/>
		</g>
	</g>
</svg>